<svg width="24" height="17" viewBox="0 0 24 17" fill="none" xmlns="http://www.w3.org/2000/svg">
<path d="M23.5312 15.5625H20.8922C20.9906 15.3891 21.0469 15.1922 21.0469 14.9813V13.8844C21.0469 13.7156 21.1687 13.5984 21.3422 13.5984H22.7531C23.4422 13.5984 24 13.0313 24 12.3328C24 10.9969 23.4797 9.74531 22.5375 8.79844C21.7453 8.00625 20.4094 8.58281 20.4094 9.67969C20.4094 9.84844 20.2734 9.98906 20.1 9.98906H18.6891C18.5344 9.98906 18.3844 10.0172 18.2438 10.0734L18.0984 9.675C18.0422 9.51562 18.1219 9.3375 18.2812 9.28125L19.3125 8.90625C19.9594 8.67188 20.2922 7.95469 20.0578 7.30781L19.6828 6.27656C19.6266 6.11719 19.7062 5.93906 19.8656 5.88281C20.9109 5.50313 20.9719 4.05469 19.9641 3.58125C18.7547 3.01875 17.4 2.95781 16.1437 3.4125C15.4969 3.64688 15.1641 4.36406 15.3984 5.01094L15.7734 6.04219C15.8297 6.20156 15.75 6.37969 15.5906 6.43594L14.9531 6.66563C14.9578 6.34219 14.8359 6.01875 14.5875 5.775L13.8094 4.99688C13.6875 4.875 13.6875 4.68281 13.8094 4.56094L14.5875 3.78281C15.075 3.29531 15.075 2.50781 14.5875 2.02031C13.65 1.08281 12.3984 0.5625 11.0625 0.5625C9.94219 0.5625 9.40312 1.9125 10.1812 2.69062C10.3031 2.8125 10.3031 3.00469 10.1812 3.12656L9.40313 3.90469C8.91563 4.39219 8.91563 5.17969 9.40313 5.66719L10.1812 6.44531C10.3031 6.56719 10.3031 6.75938 10.1812 6.88125L9.89062 7.17188C9.75469 7.01719 9.58125 6.89531 9.37969 6.82031L8.34844 6.44531C8.26875 6.41719 8.20781 6.36094 8.175 6.28594C8.14219 6.21094 8.1375 6.12656 8.16562 6.05156L8.54062 5.02031C8.775 4.37344 8.44219 3.66094 7.79531 3.42188C6.54375 2.96719 5.18438 3.02344 3.975 3.59063C2.97188 4.05938 3.03281 5.50781 4.07344 5.8875C4.23281 5.94375 4.31719 6.12188 4.25625 6.28125L3.88125 7.3125C3.64688 7.95938 3.97969 8.67188 4.62656 8.91094L5.65781 9.28594C5.81719 9.34219 5.90156 9.52031 5.84062 9.67969L5.69531 10.0734C5.55469 10.0172 5.4 9.98906 5.25 9.98906H3.89062C3.72187 9.98906 3.58125 9.85313 3.58125 9.67969C3.58125 8.58281 2.24531 8.00625 1.45312 8.79844C0.534375 9.72656 0 11.0203 0 12.3469C0 13.0359 0.557813 13.5938 1.24688 13.5938H2.60625C2.77969 13.5938 2.90625 13.7156 2.90625 13.8797V14.9766C2.90625 15.1875 2.95781 15.3844 3.05156 15.5578H0.46875C0.210938 15.5578 0 15.7688 0 16.0266C0 16.2844 0.210938 16.4953 0.46875 16.4953C1.36875 16.4953 22.2375 16.4953 23.5312 16.4953C23.7891 16.4953 24 16.2844 24 16.0266C24 15.7688 23.7891 15.5625 23.5312 15.5625ZM6.0375 15.5625C5.81719 15.3797 5.54063 15.2813 5.25469 15.2813H4.15781C3.98437 15.2813 3.84375 15.1453 3.84375 14.9813V13.8844C3.84375 13.1953 3.3 12.6609 2.60625 12.6609H1.24688C1.07812 12.6609 0.9375 12.525 0.9375 12.3516C0.9375 11.2688 1.36875 10.2188 2.12813 9.46406C2.32031 9.27188 2.65312 9.40781 2.65312 9.67969C2.65312 10.3688 3.21094 10.9266 3.9 10.9266L5.25937 10.9219C5.35312 10.9219 5.44219 10.9688 5.50313 11.0391C5.51719 11.0719 5.53594 11.1047 5.55937 11.1328C5.57344 11.1656 5.57812 11.2031 5.57812 11.2406V12.3281C5.57812 13.0266 6.13125 13.5938 6.81094 13.5938H7.90781C8.07656 13.5938 8.20312 13.7156 8.20312 13.8797V14.9766C8.20312 15.1875 8.25469 15.3844 8.35312 15.5578H6.0375V15.5625ZM10.5609 15.2813H9.46406C9.29062 15.2813 9.14531 15.1453 9.14531 14.9813V13.8844C9.14531 13.1953 8.60625 12.6609 7.9125 12.6609H6.81562C6.65625 12.6609 6.52031 12.5109 6.52031 12.3328V11.2359C6.52031 11.0859 6.49219 10.9406 6.44062 10.8047L6.73125 10.0031C6.96563 9.35625 6.63281 8.64375 5.98594 8.40469L4.95469 8.02969C4.79531 7.97344 4.71094 7.79531 4.77188 7.63594L5.14688 6.60469C5.38125 5.95781 5.04844 5.24531 4.40156 5.00625C4.14375 4.9125 4.125 4.55625 4.37813 4.43906C5.3625 3.97969 6.46406 3.93281 7.48125 4.30313C7.64063 4.35938 7.725 4.5375 7.66406 4.69688L7.28906 5.72813C7.17656 6.04219 7.19062 6.37969 7.33125 6.67969C7.47187 6.97969 7.72031 7.20938 8.03437 7.32188L9.06562 7.69688C9.14531 7.725 9.20625 7.78594 9.24375 7.86094C8.93437 8.34375 8.99063 8.99531 9.4125 9.4125L10.1906 10.1906C10.3125 10.3125 10.3125 10.5047 10.1906 10.6266L9.4125 11.4047C8.925 11.8922 8.925 12.6797 9.4125 13.1672L10.6406 14.3953C10.5562 14.6578 10.5563 14.9391 10.6547 15.2109L10.6828 15.2906C10.6406 15.2859 10.5984 15.2813 10.5609 15.2813ZM11.2453 13.6734L10.0688 12.4969C9.94688 12.375 9.94688 12.1828 10.0688 12.0609L10.8469 11.2828C11.3344 10.7953 11.3344 10.0078 10.8469 9.52031L10.0688 8.74219C9.94688 8.62031 9.94688 8.42813 10.0688 8.30625L10.8469 7.52813C11.3344 7.04063 11.3344 6.25313 10.8469 5.76563C10.1344 5.01563 9.97969 4.99219 9.97969 4.77188C9.97969 4.6875 10.0125 4.6125 10.0688 4.55625L10.8469 3.77813C11.3344 3.29063 11.3344 2.50313 10.8469 2.01563C10.6547 1.82344 10.7906 1.49063 11.0625 1.49063C12.1453 1.49063 13.1672 1.9125 13.9313 2.68125C14.0531 2.80313 14.0531 2.99531 13.9313 3.11719L13.1531 3.89531C12.6656 4.38281 12.6656 5.17031 13.1531 5.65781L13.9313 6.43594C14.0531 6.55781 14.0531 6.75 13.9313 6.87188L13.1531 7.65C12.6656 8.1375 12.6656 8.925 13.1531 9.4125L13.6922 9.95156L12.975 10.2141C12.6609 10.3266 12.4125 10.5563 12.2719 10.8563C12.1312 11.1563 12.1172 11.4938 12.2297 11.8078L12.6047 12.8391C12.6609 12.9984 12.5813 13.1766 12.4219 13.2328L11.3906 13.6078C11.3438 13.6266 11.2922 13.65 11.2453 13.6734ZM14.0156 8.94375L13.8187 8.74688C13.7062 8.63438 13.6969 8.45625 13.7953 8.33437C13.8187 8.40938 13.8141 8.39062 14.0156 8.94375ZM15.6328 13.3922L16.0078 14.4234C16.0641 14.5828 15.9844 14.7609 15.825 14.8172L14.7938 15.1922C14.5875 15.2672 14.4094 15.3938 14.2687 15.5625H11.7797L11.5312 14.8828C11.475 14.7234 11.5547 14.5453 11.7141 14.4891L12.7453 14.1141C13.3922 13.8797 13.725 13.1625 13.4906 12.5156L13.1156 11.4844C13.0875 11.4094 13.0922 11.325 13.125 11.25C13.1578 11.175 13.2234 11.1188 13.2984 11.0906L14.3297 10.7156C14.4891 10.6594 14.6297 10.5703 14.7516 10.4578L14.7562 10.4531C14.7609 10.4484 14.7656 10.4438 14.7703 10.4391C15.1219 10.0969 15.2438 9.58125 15.075 9.12188L14.7 8.09063C14.6438 7.93125 14.7234 7.75313 14.8828 7.69688L15.9141 7.32188C16.5609 7.0875 16.8937 6.375 16.6594 5.72344L16.2844 4.69219C16.2281 4.53281 16.3078 4.35469 16.4672 4.29844C17.4844 3.92813 18.5859 3.975 19.5703 4.43438C19.8188 4.55156 19.8047 4.90781 19.5469 5.00156C18.9 5.23594 18.5672 5.94844 18.8016 6.59531L19.1766 7.62656C19.2328 7.78594 19.1531 7.96406 18.9938 8.02031L17.9625 8.39531C17.3156 8.62969 16.9828 9.34688 17.2172 9.99375L17.5453 10.8891C17.55 10.9594 17.5734 11.0297 17.6109 11.0906C17.6297 11.2313 17.55 11.3672 17.4094 11.4188L16.3781 11.7938C15.7312 12.0328 15.3984 12.7453 15.6328 13.3922ZM20.1094 13.8797V14.9766C20.1094 15.15 19.9406 15.2297 19.7859 15.2297H18.6891C18.4125 15.2297 18.1359 15.3469 17.9016 15.5578H16.4156C16.875 15.2484 17.0906 14.6531 16.8891 14.1L16.5141 13.0688C16.4578 12.9094 16.5375 12.7313 16.6969 12.675L17.7281 12.3C18.3 12.0938 18.6141 11.5172 18.5344 10.9594C18.5812 10.9359 18.6328 10.9172 18.6844 10.9172H20.0953C20.7844 10.9172 21.3422 10.3641 21.3422 9.675C21.3422 9.39844 21.675 9.2625 21.8672 9.45938C22.6406 10.2234 23.0625 11.2453 23.0625 12.3281C23.0625 12.5016 22.9172 12.6563 22.7531 12.6563H21.3422C20.6484 12.6563 20.1094 13.1953 20.1094 13.8797Z" fill="black"/>
</svg>
