<svg xmlns="http://www.w3.org/2000/svg">

<!-- header -->

  <symbol id="logo" viewBox="0 0 53 38">
    <path d="M0 8.56477C0 6.10363 0.8 4.13472 2.4 2.46114C4.1 0.88601 6.1 0 8.6 0C11.2 0 13.2 0.689119 14.8 2.1658L13.6 3.93782C13 3.34715 12.2 2.95337 11.3 2.65803C10.4 2.36269 9.6 2.1658 8.7 2.1658C6.8 2.1658 5.3 2.75648 4.1 3.93782C3 5.21762 2.5 6.6943 2.5 8.56477C2.5 10.4352 3.1 12.0104 4.2 13.2902C5.4 14.5699 6.9 15.1606 8.8 15.1606C9.7 15.1606 10.7 14.9637 11.6 14.5699C12.5 14.1762 13.3 13.6839 14 12.9948L15.3 14.6684C13.5 16.4404 11.3 17.3264 8.7 17.3264C6.1 17.3264 4 16.5389 2.4 14.8653C0.8 13.0933 0 11.0259 0 8.56477Z"/>
    <path d="M18.3 17.0311V0.295334H20.6V7.58031H29.4V0.295334H31.8V16.9326H29.4V9.64767H20.6V16.9326H18.3V17.0311Z" />
    <path d="M35.2 8.56477C35.2 6.20207 36 4.13472 37.7 2.46114C39.3 0.787565 41.4 0 43.9 0C46.4 0 48.5 0.787565 50.1 2.46114C51.8 4.13472 52.6 6.10363 52.6 8.56477C52.6 11.0259 51.8 13.0933 50.1 14.7668C48.4 16.4404 46.4 17.3264 43.9 17.3264C41.4 17.3264 39.3 16.4404 37.7 14.7668C36 13.0933 35.2 11.0259 35.2 8.56477ZM37.7 8.56477C37.7 10.4352 38.3 12.0104 39.5 13.2902C40.7 14.5699 42.2 15.1606 44 15.1606C45.8 15.1606 47.3 14.5699 48.5 13.2902C49.7 12.0104 50.3 10.4352 50.3 8.56477C50.3 6.79275 49.7 5.21762 48.5 4.03627C47.3 2.85492 45.8 2.1658 44 2.1658C42.2 2.1658 40.7 2.75648 39.5 4.03627C38.2 5.21762 37.7 6.6943 37.7 8.56477Z"/>
    <path d="M0 29.2383C0 26.7772 0.8 24.8083 2.4 23.1347C4.1 21.5596 6.1 20.6736 8.6 20.6736C11.2 20.6736 13.2 21.3627 14.8 22.8394L13.6 24.6114C13 24.0207 12.2 23.6269 11.3 23.3316C10.4 23.0363 9.5 22.8394 8.7 22.8394C6.8 22.8394 5.3 23.43 4.1 24.6114C3 25.7927 2.4 27.3679 2.4 29.1399C2.4 31.0104 3 32.5855 4.1 33.8653C5.3 35.1451 6.8 35.7357 8.7 35.7357C9.6 35.7357 10.6 35.5389 11.5 35.1451C12.4 34.7513 13.2 34.2591 13.9 33.5699L15.2 35.2435C13.4 37.0155 11.2 37.9015 8.6 37.9015C6 37.9015 3.9 37.114 2.3 35.4404C0.8 33.7668 0 31.6995 0 29.2383Z"/>
    <path d="M16.8 29.2383C16.8 26.7772 17.6 24.8083 19.2 23.1347C20.8 21.5596 22.9 20.6736 25.4 20.6736C28 20.6736 30 21.3627 31.6 22.8394L30.4 24.6114C29.8 24.0207 29 23.6269 28.1 23.3316C27.2 23.0363 26.3 22.8394 25.5 22.8394C23.6 22.8394 22.1 23.43 20.9 24.6114C19.8 25.7927 19.2 27.3679 19.2 29.1399C19.2 31.0104 19.8 32.5855 20.9 33.8653C22.1 35.1451 23.6 35.7357 25.5 35.7357C26.4 35.7357 27.4 35.5389 28.3 35.1451C29.2 34.7513 30 34.2591 30.7 33.5699L32 35.2435C30.2 37.0155 28 37.9015 25.4 37.9015C22.8 37.9015 20.7 37.114 19.1 35.4404C17.6 33.7668 16.8 31.6995 16.8 29.2383Z"/>
    <path d="M33.6 29.2383C33.6 26.8756 34.4 24.8083 36.1 23.1347C37.7 21.4611 39.8 20.6736 42.3 20.6736C44.8 20.6736 46.9 21.4611 48.5 23.1347C50.1 24.8083 51 26.7772 51 29.2383C51 31.6995 50.2 33.7668 48.5 35.4404C46.8 37.114 44.8 38 42.3 38C39.8 38 37.7 37.114 36.1 35.4404C34.4 33.7668 33.6 31.6995 33.6 29.2383ZM36 29.2383C36 31.1088 36.6 32.6839 37.8 33.9637C39 35.2435 40.5 35.8342 42.3 35.8342C44.1 35.8342 45.6 35.2435 46.8 33.9637C48 32.6839 48.6 31.1088 48.6 29.2383C48.6 27.4663 48 25.8912 46.8 24.7098C45.6 23.5285 44.1 22.8394 42.3 22.8394C40.5 22.8394 39 23.43 37.8 24.7098C36.6 25.8912 36 27.3679 36 29.2383Z"/>
  </symbol>

  <symbol id="phone" viewBox="0 0 24 24">
    <path d="M23.9481 18.5956C23.8802 18.3911 23.4483 18.0898 22.6528 17.6924C22.4372 17.5671 22.1301 17.3969 21.7328 17.181C21.335 16.965 20.974 16.7661 20.6504 16.5842C20.3261 16.4024 20.0222 16.2263 19.7384 16.0561C19.693 16.022 19.551 15.9227 19.3123 15.7576C19.0735 15.5929 18.872 15.4707 18.707 15.391C18.5422 15.3118 18.3802 15.2719 18.2211 15.2719C17.9939 15.2719 17.7101 15.4339 17.3693 15.7576C17.0285 16.0816 16.7159 16.4336 16.432 16.8147C16.148 17.1955 15.8468 17.5475 15.5289 17.8714C15.2106 18.1954 14.949 18.3572 14.7447 18.3572C14.6422 18.3572 14.5143 18.3286 14.361 18.2722C14.2078 18.2154 14.0913 18.1668 14.0113 18.1276C13.932 18.0875 13.7959 18.0082 13.6026 17.8885C13.409 17.7692 13.3013 17.7038 13.2786 17.6924C11.7218 16.8286 10.3867 15.8399 9.273 14.7266C8.15962 13.6127 7.17084 12.2777 6.30725 10.7208C6.29591 10.6981 6.23042 10.5901 6.11119 10.397C5.99179 10.2038 5.91221 10.0676 5.87245 9.98781C5.83268 9.90835 5.78439 9.79181 5.72767 9.63844C5.67095 9.48506 5.64248 9.3573 5.64248 9.25491C5.64248 9.05049 5.80445 8.789 6.12833 8.47079C6.45215 8.15276 6.80451 7.8515 7.18505 7.56762C7.56589 7.28374 7.91789 6.97114 8.24183 6.63036C8.56565 6.2894 8.72756 6.00546 8.72756 5.77824C8.72756 5.61925 8.6878 5.45716 8.60834 5.29244C8.52882 5.12737 8.40667 4.92594 8.24183 4.68719C8.07693 4.44856 7.97753 4.30665 7.94338 4.26098C7.77311 3.97709 7.59717 3.67315 7.41514 3.34927C7.23311 3.02545 7.03442 2.66449 6.81842 2.26682C6.6026 1.86932 6.43227 1.5624 6.30713 1.34651C5.90964 0.551227 5.60856 0.119224 5.40397 0.0512838C5.32438 0.0171941 5.20498 0 5.04605 0C4.73907 0 4.33859 0.0567167 3.84432 0.170508C3.34987 0.284121 2.96079 0.403286 2.67667 0.52848C2.10849 0.766989 1.50628 1.46013 0.869857 2.60766C0.290332 3.6756 0.000598907 4.73262 0.000598907 5.77794C0.000598907 6.08451 0.0204796 6.38278 0.060241 6.67281C0.100002 6.96254 0.171047 7.28929 0.273436 7.65299C0.375645 8.01658 0.458093 8.28667 0.520422 8.46255C0.58281 8.63855 0.699289 8.95384 0.869797 9.40852C1.04007 9.86309 1.14245 10.1414 1.17654 10.2436C1.57422 11.3573 2.0458 12.3515 2.59118 13.2266C3.4885 14.681 4.71304 16.1841 6.26409 17.7353C7.8152 19.2864 9.31802 20.5108 10.7726 21.4085C11.6475 21.9538 12.6421 22.4254 13.7556 22.8233C13.8579 22.8573 14.1362 22.9594 14.5906 23.1303C15.0451 23.3007 15.3605 23.4171 15.5365 23.4796C15.7126 23.5422 15.9828 23.6247 16.346 23.7271C16.7101 23.8295 17.0366 23.9005 17.3263 23.9406C17.6162 23.9798 17.9145 24.0001 18.2212 24.0001C19.2664 24.0001 20.3235 23.7101 21.3916 23.1307C22.539 22.4945 23.232 21.8922 23.4706 21.3236C23.5961 21.0397 23.715 20.6506 23.8286 20.1561C23.9426 19.6619 23.9992 19.2615 23.9992 18.9545C23.9995 18.795 23.9824 18.6759 23.9481 18.5956Z"/>
  </symbol>

<!-- hero -->

  <symbol id="leaves" viewBox="0 0 49 46">
    <path d="M6.48057 28.0363C6.48057 28.6525 6.78867 29.2686 6.78867 29.8848C6.78867 32.3496 7.09676 36.3547 7.09676 36.3547H8.63721C8.63721 36.3547 8.63721 29.8848 7.71294 26.4958C6.78867 22.7987 6.48058 16.0207 8.63721 11.0913L7.09676 10.4751C7.09676 10.4751 5.24821 14.1722 5.24821 20.0259C5.24821 23.723 5.5563 25.2635 5.86439 26.8039C4.63203 25.8796 1.24303 22.7987 1.55112 16.3288C2.1673 8.93464 8.63721 2.15664 8.63721 2.15664C8.63721 2.15664 20.0366 12.9398 9.86958 24.9554L11.1019 25.8797C11.1019 25.8797 15.7233 20.6421 15.7233 14.7884C15.7233 8.93464 13.2586 4.00518 8.63721 0C8.63721 0 0.626846 7.70228 0.010664 16.945C-0.297427 25.5716 6.17248 28.6525 6.17248 28.6525L6.48057 28.0363Z"/>
    <path d="M22.5013 20.0259C11.1019 23.4149 11.7181 34.5062 12.0262 36.9709C8.02103 40.9761 6.17249 44.6732 6.17249 44.6732L7.40485 45.2894C19.1123 25.8797 37.2897 29.5768 37.2897 29.5768V28.0363C26.1984 26.8039 18.4961 31.1172 13.2586 35.4305C12.9505 31.4253 14.799 21.8745 26.5065 20.9502C40.0625 20.6421 46.5324 28.6525 46.5324 28.6525C39.4463 40.0518 31.436 41.5923 26.5065 42.2085C21.2689 43.1328 14.799 39.4357 14.799 39.4357L14.1829 40.668C14.1829 40.668 19.7285 44.3651 26.8146 43.7489C42.2191 41.9004 48.0729 28.3444 48.0729 28.3444C46.5324 25.2635 35.133 16.945 22.5013 20.0259Z"/>
  </symbol>

  <symbol id="car" viewBox="0 0 50 40">
    <path d="M7.68487 15.0953L10.4295 12.8996H10.7039C11.5273 12.8996 12.0762 12.3507 12.0762 11.5273C12.0762 10.9784 11.8018 10.7039 11.5273 10.4295V4.66583H10.155V10.4295C9.60609 10.7039 9.33163 10.9784 9.33163 11.5273V11.8018L6.58703 13.9975L7.68487 15.0953Z"/>
    <path d="M49.4028 29.9161V21.1334C49.4028 18.3888 48.3049 17.291 48.3049 17.291C48.3049 17.291 45.5603 13.723 43.9136 11.5273C42.2668 9.33163 40.0711 9.33163 40.0711 9.33163H30.7395V7.95933C30.7395 6.03811 29.3672 4.66582 27.446 4.66582H19.4866C17.5654 1.92122 14.2719 0 10.7039 0C4.66582 0 0 4.94027 0 10.9784C0 13.4485 0.823379 15.6442 2.19568 17.5654V29.6417C2.19568 31.5629 3.56798 32.9352 5.48919 32.9352H6.86149V33.2096C6.86149 36.5031 9.60609 39.2477 12.8996 39.2477C16.1931 39.2477 18.9377 36.5031 18.9377 33.2096C18.9377 32.9352 18.9377 32.9352 18.9377 32.9352H27.1715H27.446C28.2694 32.9352 30.1906 32.9352 32.6607 32.9352V33.2096C32.6607 36.5031 35.4053 39.2477 38.6988 39.2477C41.9923 39.2477 44.7369 36.5031 44.7369 33.2096C44.7369 32.9352 44.7369 32.9352 44.7369 32.9352C45.0114 32.9352 45.2859 32.9352 45.2859 32.9352C49.9517 33.2096 49.4028 29.9161 49.4028 29.9161ZM48.0305 20.31C48.0305 20.31 48.0305 20.5845 48.0305 21.1334H37.3265C36.7776 21.1334 36.2287 20.5845 36.2287 20.0356V15.6442C36.2287 15.0953 36.7776 14.5464 37.3265 14.5464H44.4625C45.2859 15.3697 46.1092 16.4676 46.6582 17.291C48.0305 18.9377 48.0305 20.31 48.0305 20.31ZM10.7039 1.64676C15.9187 1.64676 20.31 5.76366 20.31 11.2529C20.31 16.742 15.9187 20.5845 10.7039 20.5845C5.4892 20.5845 1.3723 16.1931 1.3723 10.9784C1.3723 5.76365 5.4892 1.64676 10.7039 1.64676ZM12.6251 37.8754C10.155 37.8754 8.23379 35.9542 8.23379 33.4841C8.23379 31.014 10.155 29.0927 12.6251 29.0927C15.0953 29.0927 17.0165 31.014 17.0165 33.4841C17.0165 35.9542 15.0953 37.8754 12.6251 37.8754ZM18.1143 31.5629C17.291 29.3672 15.0953 27.446 12.6251 27.446C10.155 27.446 7.95933 29.0927 7.13595 31.5629H5.21474C4.39136 31.5629 3.56798 30.7395 3.56798 29.9161V18.9377C5.48919 20.5845 7.95933 21.6823 10.7039 21.6823C16.742 21.6823 21.4079 16.742 21.4079 10.9784C21.4079 9.33163 20.8589 7.68487 20.31 6.31257H27.446C28.2694 6.31257 29.0927 7.13595 29.0927 7.95933V29.9161C29.0927 30.7395 28.2694 31.5629 27.446 31.5629H18.1143ZM38.4244 37.8754C35.9542 37.8754 34.033 35.9542 34.033 33.4841C34.033 31.014 35.9542 29.0927 38.4244 29.0927C40.8945 29.0927 42.8157 31.014 42.8157 33.4841C42.8157 35.9542 40.8945 37.8754 38.4244 37.8754ZM45.2859 31.8373H44.188C43.3646 29.3672 41.169 27.7204 38.6988 27.7204C35.9542 27.7204 33.7585 29.3672 33.2096 31.8373H30.465C31.014 31.2884 31.2884 30.7395 31.2884 29.9161V10.4295C31.2884 10.4295 37.3265 10.4295 39.7967 10.4295C42.2668 10.4295 43.3646 12.0762 43.3646 12.0762C43.3646 12.0762 43.0902 12.6251 43.6391 13.1741H37.3265C35.9542 13.1741 35.1308 14.2719 35.1308 15.3697V19.7611C35.1308 21.1334 36.2287 21.9568 37.3265 21.9568H48.3049C48.3049 24.1525 48.3049 27.446 48.3049 29.0927C48.0305 32.1118 45.2859 31.8373 45.2859 31.8373Z"/>
  </symbol>
  
  <symbol id="belt" viewBox="0 0 47 46">
    <path d="M12.9398 8.62658C12.9398 9.24276 14.1722 9.85894 16.0207 9.85894C17.8693 9.85894 19.1016 9.24276 19.1016 8.62658C19.1016 8.01039 17.8693 7.39421 16.0207 7.39421C14.4803 7.39421 12.9398 7.7023 12.9398 8.62658Z"/>
    <path d="M46.2137 20.0259C46.2137 16.945 43.7489 14.4803 40.668 14.4803H39.4356H12.3236C12.3236 14.4803 4.92946 14.7884 1.54046 8.93464C1.84855 4.62137 5.23755 1.54046 9.55082 1.54046H21.8745C26.4958 1.54046 29.8848 5.23755 29.8848 9.55082V11.0913H31.4253V9.85891C31.4253 4.31327 27.112 0 21.5664 0H9.85891C4.31327 0 0 4.31327 0 9.85891V13.8641V14.4803V24.3392C0 29.8848 4.31327 34.1981 9.85891 34.1981H12.0155V32.6576H9.55082C4.92946 32.6576 1.54046 28.9606 1.54046 24.6473V14.4803V13.8641V11.7075C2.46473 12.9398 5.54564 16.0207 12.0155 16.0207C21.2583 16.0207 39.1276 16.0207 39.1276 16.0207H40.668C42.8246 16.0207 44.3651 17.5612 44.3651 19.7178V21.5664V22.1826C44.3651 24.3392 42.8246 25.8797 40.668 25.8797H40.3599H20.9502C17.8693 25.8797 15.4046 28.3444 15.4046 31.4253V39.7437C15.4046 42.8247 17.8693 45.2894 20.9502 45.2894H40.668C43.7489 45.2894 46.2137 42.8247 46.2137 39.7437V31.4253C46.2137 31.4253 46.2137 24.0311 46.2137 21.8745C46.2137 21.8745 46.2137 21.8745 46.2137 21.5664V20.0259ZM44.3651 40.3599C44.3651 42.5166 42.8246 44.057 40.668 44.057H20.6421C18.4855 44.057 16.945 42.5166 16.945 40.3599V31.4253C16.945 29.2686 18.4855 27.7282 20.6421 27.7282H26.4958V32.9657H28.0363V27.7282H35.1224H37.8952V32.9657H39.4356V27.7282H40.668C42.2085 27.7282 43.7489 27.112 44.6732 26.1877V40.3599H44.3651Z"/>
  </symbol>

<!-- benefits -->
  
  <symbol id="man" viewBox="0 0 68 69">
    <path d="M62.03 19.665C62.72 18.975 63.41 18.285 63.755 17.595C66.17 14.49 65.825 13.11 63.41 11.04C60.995 8.97 57.2 12.075 57.2 12.075C57.2 12.075 56.855 12.42 56.51 12.765C52.715 9.315 47.885 6.555 42.365 5.175C40.295 2.07 37.19 0 33.74 0C29.945 0 26.84 2.415 24.77 5.52C20.285 6.9 16.145 9.315 12.695 12.42C12.005 12.075 10.625 10.695 8.9 10.35C6.485 10.005 4.07 11.73 3.725 14.145C3.725 15.525 5.105 17.595 6.83 19.665C3.725 24.495 2 30.015 2 36.225C2 53.82 16.49 68.31 34.43 68.31C40.64 68.31 46.85 66.585 51.68 63.48L50.645 61.065C46.16 49.68 47.195 42.435 47.54 38.985C48.575 35.19 52.37 30.015 54.44 27.255C55.82 25.53 57.89 23.805 59.96 21.735C62.72 25.875 64.1 30.705 64.1 36.225C64.1 44.16 60.65 51.405 55.475 56.925L57.545 58.65C63.41 52.785 66.86 44.85 66.86 36.225C66.86 30.015 65.135 24.495 62.03 19.665ZM33.74 2.76C38.225 2.76 41.675 6.9 41.675 12.075C41.675 17.25 38.225 21.39 33.74 21.39C29.255 21.39 25.805 17.595 25.805 12.075C25.805 6.555 29.255 2.76 33.74 2.76ZM33.74 24.15C39.605 24.15 44.435 18.63 44.435 12.075C44.435 10.695 44.09 9.66 43.745 8.28C47.885 9.66 51.335 11.73 54.44 14.49C51.68 16.905 47.54 20.01 45.47 21.39C42.365 23.805 37.19 26.22 33.05 26.22C28.91 26.22 26.84 24.495 23.735 23.115C20.975 21.735 16.49 16.56 14.42 14.49C17.18 12.075 20.285 10.35 23.39 8.97C23.39 10.005 23.045 11.04 23.045 12.075C23.045 18.975 27.875 24.15 33.74 24.15ZM4.76 36.225C4.76 31.05 6.14 26.22 8.555 21.735C9.245 22.425 9.59 22.77 9.59 22.77C9.59 22.77 18.215 32.775 19.94 35.19C21.665 37.605 19.595 39.33 18.215 45.54C17.18 50.37 17.18 56.925 17.18 60.03C9.59 54.51 4.76 45.885 4.76 36.225ZM58.235 19.665C56.855 21.045 52.025 25.185 47.885 31.74C43.745 38.295 44.435 43.47 44.78 47.265C45.125 51.06 46.16 54.51 46.505 55.89C46.85 56.925 48.23 60.72 48.575 61.755C44.435 63.825 39.605 65.205 34.775 65.205C29.255 65.205 24.425 63.825 19.94 61.41C19.94 49.68 20.63 47.955 20.975 46.23C20.975 44.505 22.01 41.055 23.045 38.295C23.735 35.88 22.7 33.81 21.665 32.775C20.63 31.74 10.625 19.665 8.9 17.25C6.83 14.835 6.485 13.8 8.21 13.11C9.935 12.075 14.42 17.595 16.49 20.01C18.215 22.425 26.15 28.98 33.395 28.635C40.64 28.29 45.815 24.495 47.885 23.115C49.61 21.735 58.58 14.49 59.96 13.455C61.34 12.42 63.065 13.455 62.72 14.49C62.375 15.525 59.615 18.285 58.235 19.665Z"/>
  </symbol>

  <symbol id="smile" viewBox="0 0 68 68">
    <path d="M34 2C16.4314 2 2 16.4314 2 34C2 51.5686 16.4314 66 34 66C51.5686 66 66 51.5686 66 34C66 16.4314 51.5686 2 34 2ZM34 63.4902C17.6863 63.4902 4.5098 50.3137 4.5098 34C4.5098 17.6863 17.6863 4.5098 34 4.5098C50.3137 4.5098 63.4902 17.6863 63.4902 34C63.4902 50.3137 50.3137 63.4902 34 63.4902Z"/>
    <path d="M34 50.6275C23.0196 50.6275 16.4314 40.902 16.4314 40.902L14.2353 42.4706C23.0196 53.7647 34 53.451 34 53.451C34 53.451 44.9804 54.0785 53.7647 42.4706L51.5686 40.902C51.5686 40.902 44.9804 50.6275 34 50.6275Z"/>
    <path d="M23.3333 37.451C30.8627 34 32.1176 29.6078 32.1176 27.4118C32.1176 24.902 30.549 22.0784 27.7255 22.0784C24.5882 22.0784 23.3333 23.6471 23.3333 23.6471C23.3333 23.6471 22.0784 22.0784 18.9412 22.0784C16.1176 22.0784 14.549 25.2157 14.549 27.4118C14.549 29.6078 15.8039 34 23.3333 37.451ZM23.3333 26.7843C24.902 24.2745 29.2941 23.9608 29.6078 27.098C29.6078 31.4902 23.3333 34.6275 23.3333 34.6275C23.3333 34.6275 17.0588 31.4902 17.0588 27.098C17.3725 23.9608 21.7647 24.2745 23.3333 26.7843Z"/>
    <path d="M44.6667 37.451C52.1961 34 53.451 29.6078 53.451 27.7255C53.451 25.2157 51.8824 22.3922 49.0588 22.3922C45.9216 22.3922 44.6667 23.9608 44.6667 23.9608C44.6667 23.9608 43.4118 22.3922 40.2745 22.3922C37.451 22.3922 35.8824 25.5294 35.8824 27.7255C35.8824 29.6078 37.1373 34 44.6667 37.451ZM44.6667 26.7843C46.2353 24.2745 50.6274 23.9608 50.9412 27.098C50.9412 31.4902 44.6667 34.6274 44.6667 34.6274C44.6667 34.6274 38.3922 31.4902 38.3922 27.098C38.7059 23.9608 43.098 24.2745 44.6667 26.7843Z"/>
  </symbol>

  <symbol id="arm" viewBox="0 0 64 54">
    <path d="M49.9372 8.44973C43.9103 8.44973 36.1614 12.7547 36.4484 21.6515C36.4484 21.6515 24.6816 17.9206 21.2377 30.2614C21.2377 30.2614 19.2287 25.9565 16.6457 23.9475C13.7758 21.9385 10.3318 16.7726 10.0448 14.1896C10.3318 12.7547 10.6188 12.7547 11.1928 12.4677C11.4798 12.4677 11.4798 14.7636 14.0628 15.0506C16.3587 14.7636 16.9327 14.1896 17.7937 13.0417L20.3767 10.1717C20.3767 10.1717 22.9596 6.72776 20.6637 5.00578C18.6547 2.99681 14.9238 -0.734128 10.3318 0.126858C7.74888 0.700849 5.73991 2.70982 5.73991 2.70982L2.29596 5.86677C2.29596 5.86677 0 8.16273 0 12.7547C0 16.7726 0.860987 23.3735 0.860987 23.3735C0.860987 23.3735 1.72197 28.5394 2.00897 30.2614C2.29596 31.9834 4.59193 42.0282 10.0448 47.4811C13.4888 51.4991 15.4978 53.221 17.2197 53.508C20.0897 53.508 21.5247 51.7861 23.8206 51.7861C26.1166 51.7861 28.4126 53.508 33.2915 53.508C38.1704 53.508 49.0762 50.6381 53.6682 36.5753C57.9731 34.8533 64 31.6964 64 22.2255C64 12.7547 55.6771 8.44973 49.9372 8.44973ZM51.9462 34.8533C48.7892 47.4811 38.7444 50.9251 33.8655 51.4991C29.2735 51.4991 26.6906 49.7771 23.2466 49.7771C21.2377 49.7771 18.3677 51.4991 17.5067 51.4991C16.6457 51.4991 14.3498 49.4901 11.4798 46.3331C8.60987 43.1762 7.46188 40.3062 6.3139 38.0103C5.16592 35.7143 3.15695 26.5304 3.15695 26.5304C3.15695 26.5304 2.29596 17.3466 2.29596 13.3287C2.29596 9.59771 4.01794 7.30175 4.01794 7.30175C4.01794 7.30175 6.3139 5.29278 8.60987 3.28381C11.1928 1.27484 14.3498 2.70982 14.3498 2.70982C14.3498 2.70982 17.5067 4.71879 18.6547 5.86677C20.0897 7.01475 18.6547 8.16273 18.6547 8.16273C18.6547 8.16273 15.4978 12.1807 14.3498 12.4677C12.9148 12.7547 12.6278 9.31072 12.6278 9.31072C11.1928 9.88471 8.89686 10.4587 8.03587 13.0417C7.17489 16.1986 11.7668 22.7995 15.2108 25.9565C18.3677 29.1134 20.3767 34.2793 20.3767 34.2793L22.9596 33.4183C22.9596 33.4183 22.6726 27.3914 27.8386 24.2345C33.5785 21.0775 38.7444 25.3825 38.7444 25.3825C37.0224 11.0327 49.6502 10.7457 50.5112 10.7457C51.3722 10.7457 61.417 11.6067 62.278 21.6515C61.704 33.1313 51.9462 34.8533 51.9462 34.8533Z"/>
  </symbol>

<!--slider-->

<!--
  <symbol id="left" viewBox="0 0 24 40">
    <path d="M19 34L6.91422 21.9142C6.13317 21.1332 6.13317 19.8668 6.91421 19.0858L19 7"/>
  </symbol>
  <symbol id="right" viewBox="0 0 24 40">
    <path d="M5 6L17.0858 18.0858C17.8668 18.8668 17.8668 20.1332 17.0858 20.9142L5 33"/>
  </symbol>
-->

  <symbol id="bar" viewBox="0 0 46 46">
    <path d="M44.6903 7.1641L38.8069 1.27893C37.9858 0.457505 36.8943 0 35.7301 0C34.5659 0 33.4641 0.457505 32.6429 1.27893C31.7802 2.14195 31.3436 3.29611 31.3644 4.46067C30.2002 4.43987 29.0464 4.87658 28.1837 5.7396C27.3209 6.60262 26.8843 7.75678 26.9051 8.92134C25.7409 8.89015 24.5871 9.33725 23.7244 10.2003C22.8616 11.0633 22.425 12.2175 22.4458 13.382C21.2816 13.3612 20.1278 13.7979 19.2651 14.6609L4.71265 29.2179L0.315736 33.6162C0.191001 33.7306 0.0974494 33.8865 0.0454764 34.0529C0.0454764 34.0737 0.0350818 34.0841 0.0350818 34.1049C-0.0272858 34.344 -0.00649662 34.5832 0.0974494 34.7911C0.118239 34.8431 0.149422 34.8847 0.170212 34.9367C0.305341 35.1343 0.502839 35.2902 0.752309 35.363L4.31766 36.382L5.33633 39.9485C5.42988 40.2916 5.70014 40.5619 6.05355 40.6659L9.6189 41.6849L10.6376 45.2514C10.7103 45.5009 10.8663 45.6985 11.0741 45.8336C11.1157 45.8648 11.1573 45.8856 11.2093 45.9064C11.3444 45.9688 11.4899 46 11.6355 46C11.729 46 11.8226 45.9896 11.9265 45.9584C12.1136 45.9064 12.2695 45.8128 12.3943 45.6777L16.7912 41.2794L23.1007 34.9679C23.2254 35.0927 23.371 35.1759 23.5373 35.2278C23.9011 35.3318 24.2961 35.2382 24.5663 34.9679L32.0816 27.4503C32.487 27.0448 32.487 26.3897 32.0816 25.9842L31.9881 25.8906C32.4247 25.1731 32.6325 24.3517 32.6222 23.5303C33.7863 23.5511 34.9401 23.1144 35.8029 22.2514C36.6656 21.3883 37.1022 20.2342 37.0814 19.0696C38.2456 19.1008 39.3994 18.6537 40.2622 17.7907C41.1249 16.9277 41.5615 15.7735 41.5407 14.609C42.7049 14.6297 43.8587 14.193 44.7215 13.33C45.5426 12.5086 46 11.4064 46 10.2419C45.9688 9.0877 45.5218 7.98553 44.6903 7.1641ZM12.1344 42.9638L11.4484 40.5411C11.3548 40.198 11.0845 39.9277 10.7311 39.8237L7.16578 38.8151L6.14711 35.2486C6.05356 34.9055 5.7833 34.6352 5.42988 34.5312L3.00794 33.8449L5.42988 31.4222L14.5459 40.5411L12.1344 42.9638ZM24.4208 32.1501L21.9781 20.8476C21.8533 20.2862 21.3024 19.9326 20.7411 20.047C20.1798 20.1718 19.8264 20.7229 19.9407 21.2844L22.4043 32.6908L16.022 39.075L6.90591 29.9561L19.9927 16.8653L29.8468 26.7224L24.4208 32.1501ZM43.2246 11.8639C42.5282 12.5606 41.468 12.7373 40.5948 12.2902C40.1998 12.0927 39.7113 12.1655 39.3994 12.4878C39.0876 12.8101 39.0044 13.2884 39.2019 13.6835C39.6385 14.5674 39.4618 15.6279 38.7758 16.3142C38.0897 17.0005 37.0191 17.1876 36.1459 16.7405C35.7509 16.5429 35.2624 16.6157 34.9505 16.9381C34.6387 17.25 34.5555 17.7387 34.753 18.1338C35.1896 19.0176 35.0129 20.0782 34.3269 20.7645C33.6304 21.4611 32.5702 21.6379 31.697 21.1908C31.302 20.9932 30.8135 21.066 30.5017 21.3883C30.1898 21.7003 30.1067 22.189 30.3042 22.5841C30.5744 23.1352 30.616 23.7486 30.4289 24.3101L21.6662 15.5448C22.2276 15.368 22.8408 15.3992 23.3917 15.6695C23.7867 15.8671 24.2753 15.7943 24.5871 15.472C24.899 15.1496 24.9821 14.6713 24.7846 14.2762C24.348 13.3924 24.5248 12.3318 25.2108 11.6456C25.8968 10.9593 26.9675 10.7722 27.8406 11.2193C28.2356 11.4168 28.7242 11.344 29.036 11.0217C29.3479 10.7098 29.431 10.2211 29.2335 9.82595C28.7969 8.94213 28.9736 7.88155 29.6597 7.1953C30.3561 6.49864 31.4164 6.32188 32.2895 6.76899C32.6845 6.96655 33.1731 6.89376 33.4849 6.57143C33.7967 6.25949 33.8799 5.7708 33.6824 5.37568C33.2458 4.49186 33.4225 3.43128 34.1086 2.74503C34.5452 2.30832 35.1169 2.07957 35.7301 2.07957C36.3434 2.07957 36.9151 2.31872 37.3517 2.74503L43.2246 8.6302C43.6612 9.06691 43.8899 9.63879 43.8899 10.2523C43.8899 10.8553 43.6508 11.4376 43.2246 11.8639Z"/>
  </symbol>

<!--compound-->

  <symbol id="grape" viewBox="0 0 32 32">
    <path d="M20.443 16.7139C22.6035 15.225 22.0963 11.5147 19.5084 10.8008C19.3252 10.7491 18.5973 10.7773 18.508 10.6927C18.3624 10.5518 18.2732 9.88022 18.1605 9.67356C17.8364 9.07708 17.3198 8.59802 16.7139 8.30683C15.4458 7.69626 13.9147 7.95928 12.9706 9.01603C12.0595 7.7855 10.472 7.40976 9.10058 8.072C8.49001 8.36319 7.96398 8.83755 7.62582 9.41994C7.45205 9.72053 7.32524 10.0446 7.25479 10.3875C7.17494 10.7961 7.27827 11.1718 7.24539 11.571C7.22191 11.8481 7.28766 11.7918 6.98708 11.9045C6.818 11.9702 6.65361 12.0501 6.49393 12.144C6.14637 12.3554 5.84578 12.6325 5.60156 12.9565C5.13659 13.5765 4.89706 14.3608 4.92054 15.1358C4.92993 15.488 5.00038 15.8403 5.1225 16.1738C5.19295 16.3663 5.28688 16.5542 5.39021 16.7327C5.43717 16.8078 5.5452 16.9205 5.56868 16.9957C5.63913 17.2117 5.63913 17.0379 5.5358 17.2446C5.33854 17.6297 4.9769 17.9068 4.80312 18.3295C4.62465 18.7569 4.54011 19.2172 4.54481 19.6822C4.5495 20.119 4.63874 20.5511 4.80782 20.9503C4.88766 21.1428 5.01917 21.3072 5.10371 21.4951C5.17416 21.6501 5.23052 21.636 5.19295 21.7675C5.17416 21.8286 4.91115 22.0211 4.87357 22.0634C4.30058 22.6974 3.9953 23.5334 3.99999 24.3741C4.01408 26.1918 5.50762 27.7135 7.34872 27.6195C8.17533 27.5773 8.97377 27.2109 9.54207 26.6051C9.62661 26.5158 9.85674 26.079 9.95537 26.0462C10.0352 26.0227 10.4438 26.234 10.5284 26.2575C10.9605 26.3702 11.416 26.3843 11.8575 26.3045C12.6794 26.1589 13.4309 25.6892 13.9194 25.0129C14.0556 24.8297 14.1307 24.5996 14.2622 24.4211C14.2951 24.3788 14.3186 24.2004 14.3609 24.1769C14.3796 24.1675 14.6661 24.2614 14.7272 24.2708C15.2063 24.3648 15.7088 24.3413 16.1832 24.2098C16.681 24.0689 17.146 23.8059 17.5264 23.4536C17.6297 23.355 17.9444 22.8477 18.0571 22.8055C18.1839 22.7632 18.6113 22.9511 18.7616 22.9698C19.7573 23.0779 20.7671 22.6833 21.4528 21.9601C22.9323 20.382 22.4203 17.6391 20.443 16.7139C20.5699 16.6246 20.6967 16.5401 20.8235 16.4509C20.6967 16.5401 20.5699 16.6246 20.443 16.7139ZM17.8035 13.3511C17.9209 13.2149 18.0383 13.0552 18.1182 12.8955C18.1464 12.8485 18.1699 12.8015 18.1933 12.7499C18.3061 12.5197 18.4 12.2849 18.4564 12.036C18.5362 11.6931 18.4657 11.6462 18.8039 11.6133C19.128 11.5851 19.5178 11.7448 19.7855 11.9045C20.3256 12.2286 20.6779 12.7922 20.8188 13.398C20.955 13.9898 20.8939 14.6379 20.6121 15.1781C20.4618 15.4693 20.2458 15.7229 19.9828 15.9154C19.8935 15.9812 19.1092 16.3569 19.1092 16.2724C19.1092 16.2583 19.1092 16.2395 19.1092 16.2254C19.1139 16.1174 19.1092 16 19.0998 15.892C19.0998 15.8732 19.0951 15.8591 19.0951 15.8403C19.0951 15.8403 19.0951 15.8356 19.0951 15.8309C18.9965 14.8728 18.508 13.9945 17.7143 13.4403C17.7472 13.4168 17.7753 13.3839 17.8035 13.3511C17.8176 13.337 17.7753 13.3839 17.8035 13.3511C17.9209 13.2149 17.7753 13.3839 17.8035 13.3511ZM17.7378 14.746C17.7472 14.7554 17.7519 14.7648 17.7565 14.7741C17.874 14.9385 17.9632 15.117 18.0383 15.3002C18.0477 15.3237 18.0524 15.3424 18.0618 15.3659C18.0665 15.3753 18.0665 15.3847 18.0712 15.3941C18.0759 15.4082 18.0806 15.4223 18.0853 15.4364C18.137 15.5867 18.1605 15.7464 18.1839 15.9013C18.1839 15.9248 18.1886 15.9436 18.1886 15.9671C18.1886 15.9765 18.1886 15.9906 18.1933 16C18.1933 16.0235 18.198 16.0422 18.198 16.0657C18.198 16.0704 18.198 16.0751 18.198 16.0798C18.2074 16.2818 18.2027 16.5213 18.137 16.7139C18.1323 16.7327 18.1323 16.7514 18.1276 16.7655C17.7941 17.5734 17.2775 18.292 16.371 18.4845C15.8074 18.6066 15.1264 18.5033 14.6567 18.1511C14.6192 18.1276 14.5816 18.0994 14.5487 18.0759C13.5859 17.3432 13.4074 16.0235 13.9804 14.9902C14.5722 13.9194 15.6524 13.6047 16.7702 13.9804C16.7937 13.9898 16.8172 14.0039 16.8407 14.0133C16.8642 14.0227 16.8877 14.0368 16.9111 14.0462C16.9158 14.0462 16.9205 14.0509 16.9252 14.0509C16.991 14.0837 17.0567 14.1213 17.1178 14.1636C17.1742 14.2012 17.2305 14.2387 17.2869 14.281C17.3385 14.3186 17.3855 14.3608 17.4325 14.4078C17.4419 14.4172 17.4513 14.4219 17.456 14.4313C17.5217 14.483 17.7143 14.7178 17.7378 14.746C17.7425 14.7554 17.7096 14.7084 17.7378 14.746ZM12.8156 15.2532C12.7875 15.3565 12.764 15.4646 12.7452 15.5679C12.0783 15.5867 11.4912 15.2908 11.0309 14.8258C10.7444 14.5111 10.5472 14.126 10.4579 13.708C10.0211 12.562 11.0826 11.1718 12.1487 10.9041C12.0266 12.0736 12.5667 13.2712 13.5295 13.9522C13.1961 14.328 12.9519 14.7788 12.8156 15.2579C12.8344 15.1922 12.8532 15.1264 12.872 15.0559C12.8532 15.1264 12.8344 15.1875 12.8156 15.2532C12.7875 15.3565 12.9519 14.7695 12.8156 15.2532ZM13.4967 18.3436C12.9659 18.7194 12.4869 19.3017 12.3037 19.9358C12.2286 19.917 12.1534 19.8982 12.0783 19.87C11.8669 19.7996 11.6368 19.7855 11.416 19.7808C11.3268 19.7808 11.2376 19.7808 11.1483 19.7855C11.0779 19.7996 11.0121 19.8043 10.9417 19.8043C10.8853 19.809 10.829 19.8137 10.7773 19.8278C10.7726 19.8278 10.7679 19.8278 10.7679 19.8278C10.7444 19.8372 10.7209 19.8419 10.6974 19.8419C9.93189 19.4239 9.42465 18.5597 9.46692 17.6814V17.6767C9.46692 17.6532 9.46692 17.6297 9.47162 17.6062C9.47162 17.6015 9.47162 17.6015 9.47162 17.5968C9.47162 17.5781 9.47631 17.5593 9.47631 17.5452V17.5405C9.48101 17.4747 9.48571 17.3855 9.50449 17.3197C9.51858 17.2305 9.54207 17.1413 9.56555 17.0567C9.56555 17.052 9.56555 17.052 9.57025 17.0473C9.57025 17.0426 9.57494 17.0379 9.57494 17.0332C9.62191 16.8736 9.69236 16.7327 9.76281 16.5824C9.80038 16.5166 9.83796 16.4509 9.88492 16.3851C10.007 16.1972 10.162 16.0282 10.3405 15.8873C10.3922 15.8356 10.4438 15.7933 10.5096 15.7604C10.5284 15.7464 10.5472 15.7323 10.5659 15.7229C10.58 15.7135 10.5941 15.7041 10.6082 15.6994C11.1859 16.2113 11.9233 16.4931 12.6935 16.4931H12.7076C12.7217 16.6716 12.7405 16.9299 12.825 17.0943C12.8344 17.1272 12.8438 17.1601 12.8579 17.1976C12.8579 17.2023 12.8626 17.2023 12.8626 17.207C12.872 17.2399 12.8861 17.2728 12.8955 17.3104C13.027 17.6861 13.2337 18.0383 13.4967 18.3436ZM13.337 10.0963C13.337 10.0916 13.3417 10.0869 13.3417 10.0822V10.0775C14.4595 8.02973 17.6016 8.94558 17.6297 11.2141C17.6297 11.2188 17.6297 11.2235 17.6297 11.2282V11.2329C17.6297 11.7777 17.4419 12.3037 17.1131 12.7311C17.1084 12.7358 17.1084 12.7358 17.1037 12.7405C17.0286 12.8391 16.9393 12.9284 16.8501 13.0129C16.2301 12.8109 15.3753 12.7734 14.7742 13.074C14.6849 13.1068 14.3421 13.3276 14.2669 13.3229C14.1448 13.3182 13.9569 13.1162 13.8724 13.0458C13.6 12.8156 13.3839 12.5197 13.243 12.191C13.243 12.1863 13.2383 12.1816 13.2383 12.1816C12.9565 11.5147 13.0223 10.6599 13.3182 10.115C13.2947 10.1714 13.2994 10.162 13.337 10.0963C13.337 10.0916 13.2665 10.2278 13.337 10.0963ZM10.411 8.64029C11.2517 8.64029 12.0219 9.11935 12.4211 9.87082C12.4164 9.88022 12.4164 9.88491 12.4117 9.89431C12.407 9.9037 12.4023 9.91779 12.3976 9.92718C10.7585 10.0822 9.50449 11.5475 9.48101 13.1726C9.29314 13.0927 9.10997 12.9753 8.95498 12.8391C8.9362 12.825 8.92211 12.8109 8.90332 12.7968C7.21252 11.5241 8.40547 8.64029 10.411 8.64029ZM7.63991 12.6794C7.64461 12.6841 7.64461 12.6888 7.64931 12.6935C7.70567 12.7922 7.79021 12.9471 7.87475 13.0317C7.88884 13.0505 7.89823 13.0646 7.91232 13.0833C7.92171 13.0927 7.93111 13.1068 7.9405 13.1162C7.95459 13.1303 7.96398 13.1491 7.97807 13.1632C8.227 13.4638 8.55577 13.7503 8.91271 13.9241C9.10058 14.0227 9.48101 14.0696 9.62661 14.2012C9.7769 14.3327 9.87553 14.807 9.99295 14.9949C9.83326 15.0935 9.67827 15.2203 9.54676 15.3565C9.53737 15.3612 9.53267 15.3706 9.52328 15.3753C9.50919 15.3894 9.4998 15.3988 9.48571 15.4129C9.26966 15.6289 9.09119 15.8779 8.94089 16.1503C8.94089 16.155 8.9362 16.1597 8.9362 16.1597C8.88923 16.1972 8.86575 16.2442 8.86575 16.2959C8.85635 16.3194 8.84226 16.3428 8.83287 16.3663C8.83287 16.3663 8.83287 16.3663 8.83287 16.371C8.79999 16.4415 8.77181 16.5166 8.74363 16.5918C8.72015 16.6528 8.69197 16.7186 8.68258 16.7843C8.67788 16.8031 8.67318 16.8219 8.66849 16.8407C8.66379 16.8595 8.65909 16.8783 8.6544 16.897C8.6544 16.9017 8.6497 16.9111 8.6497 16.9158C8.645 16.9299 8.64031 16.944 8.64031 16.9581C8.64031 16.9628 8.64031 16.9628 8.64031 16.9675C8.61682 17.0708 8.60743 17.1788 8.57925 17.2822C8.57925 17.2869 8.57925 17.2869 8.57925 17.2869V17.2916C8.57925 17.2963 8.57925 17.301 8.57925 17.301V17.3104C8.55577 17.315 8.52759 17.3197 8.5041 17.3244C8.32563 17.3526 8.13306 17.3667 7.94989 17.3479H7.9452C7.92171 17.3479 7.90293 17.3432 7.87944 17.3432C7.87475 17.3432 7.87005 17.3432 7.86535 17.3432C7.67749 17.3197 7.48962 17.2728 7.31115 17.2023C7.22661 17.1695 7.14676 17.1319 7.06692 17.0896C7.02465 17.0614 6.98238 17.0379 6.94011 17.0192C6.91663 17.0051 6.89314 16.991 6.86966 16.9722C6.85087 16.9581 6.83209 16.9487 6.818 16.9346C6.818 16.9346 6.818 16.9346 6.8133 16.9346C6.76633 16.897 6.72406 16.8642 6.6771 16.8266C5.23991 15.6289 5.78473 13.0833 7.63991 12.6794C7.63052 12.6653 7.236 12.7687 7.17964 12.7828C7.33463 12.7405 7.48962 12.7123 7.63991 12.6794C7.64461 12.6841 6.60195 12.9049 7.63991 12.6794ZM6.36242 17.7518C6.52211 17.8599 6.83678 18.09 7.03404 18.09C7.31584 18.1933 7.63052 18.2638 7.93111 18.2779C8.0814 18.2873 8.25987 18.3013 8.41017 18.2685C8.52289 18.198 8.57925 18.1933 8.57925 18.2497C8.6544 18.7334 8.83757 19.3205 9.16633 19.6963C9.31193 19.8982 9.47631 20.0814 9.66418 20.2458L9.66888 20.2505C9.19921 20.5417 8.30684 21.3119 8.30684 21.9319C8.19882 21.9601 8.0814 21.9835 7.96868 21.9929C7.95929 21.9929 7.94989 21.9929 7.9405 21.9976C5.6861 22.2043 4.62935 19.1139 6.36242 17.7518C6.36712 17.7565 6.15107 17.9773 6.11819 17.9538C6.11819 17.9538 6.43287 17.7002 6.36242 17.7518C6.44226 17.8035 5.79882 18.198 6.36242 17.7518ZM7.19843 26.7178C6.01017 26.7178 5.09901 25.7738 4.95811 24.6231C4.89236 24.083 4.99569 23.5241 5.28218 23.0591C5.3996 22.8665 5.61565 22.5237 5.83639 22.4485C6.09471 22.3593 6.57377 22.6974 6.87905 22.8008C7.21721 22.8994 7.58825 22.9511 7.9405 22.9182C8.00156 22.9135 8.05792 22.9088 8.11897 22.9041C8.09549 23.3033 8.14715 23.7354 8.28336 24.1111C8.33502 24.2755 8.39608 24.454 8.48532 24.5996C8.60743 24.8391 8.76242 25.0927 8.95498 25.2853C9.18982 25.5577 9.218 25.5436 8.98316 25.8442C8.84696 26.018 8.69197 26.1683 8.51349 26.2951C8.12837 26.5722 7.66809 26.7178 7.19843 26.7178ZM13.5859 23.4677C13.5859 23.4724 13.5859 23.4724 13.5859 23.4677C13.2947 25.2477 11.1061 26.0556 9.78629 24.7968C9.19451 24.2286 8.84696 23.3925 9.06301 22.58C9.26966 21.8145 9.89901 20.9033 10.7585 20.7765C11.1859 20.6638 12.0501 20.6262 12.3976 20.9738C12.3976 20.9738 12.3976 20.9738 12.4023 20.9738C13.2853 21.4575 13.7409 22.5565 13.5906 23.4348C13.5953 23.3925 13.5953 23.4019 13.5859 23.4677C13.5859 23.4724 13.6047 23.3409 13.5859 23.4677ZM15.3331 23.416C15.0607 23.416 14.7882 23.3644 14.5346 23.2657C14.544 23.1389 14.5487 22.9933 14.5346 22.8665C14.5252 22.7303 14.5064 22.5941 14.483 22.4579C14.4783 22.4297 14.4736 22.4015 14.4642 22.3734C14.4642 22.3734 14.4642 22.3734 14.4642 22.3687C14.4595 22.3452 14.4548 22.317 14.4454 22.2935C14.4454 22.2888 14.4454 22.2888 14.4454 22.2888C14.328 21.8567 14.0931 21.1194 13.6939 20.8516C13.6751 20.8282 13.6564 20.8094 13.6376 20.7906C13.6282 20.7812 13.6188 20.7671 13.6094 20.7577C13.4685 20.6074 13.3088 20.4759 13.1444 20.3585C13.1444 20.3538 13.1491 20.3491 13.1491 20.3444C13.1538 20.3303 13.1585 20.3162 13.1632 20.3021C13.2055 20.1612 13.2712 20.0109 13.3464 19.8794C13.4497 19.6822 13.5859 19.499 13.7456 19.344C13.7597 19.3299 13.7691 19.3205 13.7832 19.3064C13.7973 19.2923 13.8066 19.283 13.8207 19.2736C13.8301 19.2642 13.8395 19.2548 13.8536 19.2454C13.8583 19.2407 13.863 19.236 13.8724 19.2313C13.8818 19.2219 13.8959 19.2125 13.9053 19.2031C14.0039 19.1139 14.1213 19.0387 14.2387 18.973C14.746 19.2923 15.319 19.452 15.9201 19.452C15.9201 19.4567 15.9201 19.4661 15.9201 19.4708C15.892 19.9405 15.9577 20.4102 16.1174 20.8516C16.2066 21.0959 16.4509 21.744 16.7092 21.8755C16.7139 21.8849 16.7233 21.8943 16.7327 21.899C16.7468 21.9178 16.7609 21.9319 16.7749 21.946C16.8689 22.0493 16.9675 22.1479 17.0755 22.2372C17.2775 22.3076 17.2916 22.4015 17.1272 22.5237C17.0567 22.6974 16.7984 22.8712 16.6528 22.9792C16.263 23.261 15.8074 23.416 15.3331 23.416ZM19.1139 22.0775C17.6861 22.0775 16.6387 20.6826 16.8548 19.3111C17.2728 19.1796 17.8035 18.9354 18.0806 18.5831C18.1135 18.5503 18.1464 18.5221 18.1746 18.4892C18.1792 18.4845 18.1839 18.4798 18.1886 18.4751C18.2309 18.4329 18.2732 18.3859 18.3108 18.3389C18.3248 18.3248 18.3342 18.3107 18.3483 18.2967C18.353 18.292 18.3577 18.2873 18.3624 18.2779C18.4329 18.1933 18.5268 18.0806 18.5785 17.982C18.6959 17.7988 18.8039 17.6015 18.8791 17.3996C18.8837 17.3855 18.8884 17.3761 18.8931 17.362C20.2035 17.2352 21.3495 18.3436 21.3965 19.6305C21.4434 20.8939 20.4149 22.0775 19.1139 22.0775Z"/>
    <path d="M24.4446 10.7492C24.191 10.7492 23.9844 10.5425 23.9844 10.2889C23.9844 10.0353 24.191 9.82861 24.4446 9.82861C24.6983 9.82861 24.9049 10.0353 24.9049 10.2889C24.9049 10.5425 24.6983 10.7492 24.4446 10.7492Z"/>
    <path d="M27.8027 11.8388C27.3894 10.1386 26.1542 8.68729 24.1252 7.51782C24.4164 7.07633 25.9241 4.18787 24.8532 4.0094C24.2004 3.90138 24.2051 5.03797 24.083 5.43719C23.8763 6.11821 23.571 6.77104 23.1296 7.33464C22.2748 8.45715 20.8517 9.0912 19.4568 9.0912C19.0622 9.06772 18.8227 9.56556 19.0857 9.86145C19.2689 10.0634 19.5789 10.0211 19.8278 10.0071C20.7296 9.95069 21.636 9.66419 22.4063 9.19453C21.5186 12.4916 23.7025 14.9573 26.3045 16.6247C26.3092 16.6294 26.3139 16.6294 26.3186 16.6341C26.3937 16.681 26.5018 16.7045 26.591 16.6951C26.5957 16.6951 26.6051 16.6951 26.6145 16.6904C26.6333 16.6904 26.6474 16.6857 26.6661 16.681C26.6943 16.6763 26.7225 16.6622 26.7507 16.6528C26.7554 16.6528 26.7554 16.6481 26.7601 16.6481C26.7648 16.6481 26.7648 16.6435 26.7695 16.6435C26.8352 16.6106 26.8916 16.5636 26.9339 16.5026C26.9339 16.5026 26.9386 16.4979 26.9386 16.4932C26.9902 16.4086 28.4086 14.3327 27.8027 11.8388C27.3894 10.1386 28.4086 14.3327 27.8027 11.8388ZM26.6521 15.0043C26.4078 14.22 26.1589 13.4356 25.8912 12.656C25.7644 12.2802 25.6047 11.3644 25.1115 11.308C24.3084 11.2188 24.7452 12.1769 24.8767 12.5433C25.1773 13.3793 25.4403 14.2341 25.708 15.0795C24.6701 14.2763 23.6791 13.2665 23.2845 11.9844C22.8994 10.7444 23.2094 9.49511 23.6744 8.32564C26.1166 9.73464 27.7652 12.1393 26.6521 15.0043C26.2669 13.7785 26.6521 15.0043 26.6521 15.0043Z"/>
  </symbol>
  <symbol id="nut" viewBox="0 0 32 32">
    <path d="M25.8897 9.77338C25.7746 9.60552 25.5396 9.56715 25.3765 9.68225C25.2086 9.79736 25.1703 10.0324 25.2854 10.1954C26.5707 12.0228 27.2518 14.1235 27.2518 16.277C27.2518 19.0635 26.1055 21.759 24.0192 23.8741C22.446 25.4664 20.4221 26.6559 18.1679 27.3321C17.717 26.9676 17.4436 26.2434 17.3189 25.0492C17.7794 25.476 18.3933 25.7398 19.0647 25.7398C19.8465 25.7398 20.5803 25.3849 21.0647 24.7806C21.1271 24.7854 21.1894 24.7854 21.2518 24.7854C22.6667 24.7854 23.8225 23.6343 23.8225 22.2146C23.8225 21.9988 23.7986 21.7926 23.7458 21.5863C24.4221 21.3082 25.0216 20.8477 25.4628 20.2626C26 19.5528 26.283 18.7038 26.283 17.8118C26.283 16.9245 25.9952 16.0659 25.4676 15.3609C25.9808 14.8813 26.2782 14.205 26.2782 13.4856C26.2782 12.229 25.3861 11.1835 24.187 10.9628C24.1583 9.82134 23.3861 8.84772 22.3022 8.55036C21.9472 7.28417 20.7866 6.39209 19.4532 6.39209C18.7962 6.39209 18.1871 6.60791 17.6978 6.97242C17.9712 6.32494 18.3453 5.77818 18.7962 5.41847C20.9784 6.18106 22.9113 7.43285 24.3933 9.07314C24.5324 9.22662 24.7626 9.23621 24.9161 9.10192C25.0695 8.96763 25.0791 8.73261 24.9448 8.57914C22.7242 6.1283 19.5635 4.4976 16.048 4.0036C16.0144 3.9988 15.9808 3.9988 15.9424 4.0036C12.6523 4.46882 9.63549 5.94604 7.44844 8.16187C5.22302 10.4161 4 13.2986 4 16.277C4 19.2554 5.22302 22.1379 7.44844 24.3921C9.63549 26.6079 12.6523 28.0851 15.9472 28.5504C15.9664 28.5552 15.9808 28.5552 16 28.5552C16.0192 28.5552 16.0336 28.5552 16.0528 28.5504C19.3429 28.0851 22.3597 26.6079 24.5516 24.3921C26.7722 22.1379 28 19.2554 28 16.277C27.9904 13.9748 27.2662 11.7254 25.8897 9.77338ZM19.4532 7.13549C20.518 7.13549 21.4341 7.89329 21.6307 8.93405C21.6595 9.08273 21.7794 9.20264 21.9281 9.22662C22.7722 9.3753 23.3957 10.0803 23.4388 10.9341C22.8537 10.9916 22.307 11.2506 21.8849 11.6727C21.741 11.8165 21.741 12.0516 21.8849 12.1954C21.9568 12.2674 22.0528 12.3058 22.1439 12.3058C22.2398 12.3058 22.3309 12.2674 22.4029 12.1954C22.7482 11.8501 23.2086 11.6583 23.6978 11.6583C23.7074 11.6583 23.717 11.6583 23.7218 11.6535C23.741 11.6583 23.7554 11.6583 23.7746 11.6583C24.7578 11.7014 25.5252 12.5024 25.5252 13.4856C25.5252 13.994 25.3141 14.4688 24.9544 14.8141C24.211 14.1187 23.2326 13.735 22.2014 13.735C21.9952 13.735 21.8321 13.8981 21.8321 14.1043C21.8321 14.3106 21.9952 14.4736 22.2014 14.4736C23.0935 14.4736 23.9329 14.8189 24.5659 15.452C24.5851 15.4712 24.6043 15.4856 24.6235 15.5C24.6379 15.524 24.6523 15.5432 24.6667 15.5624C25.2326 16.1811 25.5396 16.9772 25.5396 17.8165C25.5396 18.5456 25.3094 19.241 24.8681 19.8261C24.5036 20.3058 24.0096 20.6847 23.458 20.9101C22.9976 20.1379 22.1679 19.6535 21.247 19.6535C20.5612 19.6535 19.9137 19.9221 19.4293 20.4065C19.2854 20.5504 19.2854 20.7854 19.4293 20.9293C19.5731 21.0731 19.8082 21.0731 19.952 20.9293C20.2974 20.5839 20.7578 20.3921 21.247 20.3921C21.9856 20.3921 22.6475 20.8285 22.9353 21.5096C23.0312 21.735 23.0791 21.9748 23.0791 22.2194C23.0791 23.1499 22.3837 23.9173 21.482 24.0324C21.5779 23.759 21.6307 23.4664 21.6307 23.1691C21.6307 22.9628 21.4676 22.7998 21.2614 22.7998C21.0552 22.7998 20.8921 22.9628 20.8921 23.1691C20.8921 23.5336 20.7866 23.8837 20.5851 24.1811C20.2446 24.6894 19.6739 24.9964 19.0647 24.9964C18.0576 24.9964 17.2326 24.1763 17.2326 23.1643C17.2326 22.6559 17.4388 22.1811 17.8082 21.8309C17.9472 21.7014 17.9616 21.4856 17.8465 21.3369C17.4436 20.8237 17.2326 20.205 17.2326 19.5528C17.2326 18.6511 17.6403 17.8165 18.3501 17.2602C18.3549 17.2554 18.3549 17.2554 18.3597 17.2506C18.8729 16.8525 19.4868 16.6415 20.1391 16.6415C20.3453 16.6415 20.5084 16.4784 20.5084 16.2722C20.5084 16.0659 20.3453 15.9029 20.1391 15.9029C19.4245 15.9029 18.7482 16.1043 18.1583 16.488C17.5731 15.8597 17.2374 15.0204 17.2374 14.1475C17.2374 13.2362 17.5923 12.3825 18.2302 11.735C18.2302 11.735 18.2302 11.7302 18.235 11.7302C18.8825 11.0779 19.7506 10.7134 20.6715 10.7134C20.8777 10.7134 21.0408 10.5504 21.0408 10.3441C21.0408 10.1379 20.8777 9.97482 20.6715 9.97482C19.6595 9.97482 18.7098 10.3297 17.952 10.982C17.5012 10.5647 17.2374 9.97482 17.2374 9.35132C17.2374 8.13309 18.2302 7.13549 19.4532 7.13549ZM4.73861 16.277C4.73861 13.4904 5.88489 10.795 7.97122 8.67986C9.39568 7.23621 11.1942 6.1235 13.1942 5.42326C13.6451 5.78297 14.024 6.32494 14.2926 6.97242C13.8034 6.61271 13.1942 6.39688 12.5372 6.39688C11.2038 6.39688 10.0432 7.28897 9.68825 8.55516C8.60432 8.85252 7.83213 9.82614 7.80336 10.9676C6.60432 11.193 5.71223 12.2386 5.71223 13.4904C5.71223 14.205 6.00959 14.8813 6.52278 15.3657C5.9952 16.0707 5.70743 16.9245 5.70743 17.8165C5.70743 17.9029 5.71223 17.994 5.71703 18.0803C5.73141 18.2818 5.90887 18.44 6.11031 18.4257C6.31175 18.4113 6.47002 18.2386 6.45564 18.0324C6.45084 17.9604 6.45084 17.8885 6.45084 17.8165C6.45084 16.982 6.76259 16.1811 7.32374 15.5624C7.34293 15.5432 7.35731 15.524 7.36691 15.5C7.38609 15.4856 7.40528 15.4712 7.42446 15.452C8.05755 14.8189 8.89688 14.4736 9.78897 14.4736C9.9952 14.4736 10.1583 14.3106 10.1583 14.1043C10.1583 13.8981 9.9952 13.735 9.78897 13.735C8.753 13.735 7.77938 14.1187 7.02158 14.8189C6.66187 14.4784 6.45084 13.9988 6.45084 13.4904C6.45084 12.5072 7.21823 11.7062 8.20144 11.6631C8.22062 11.6631 8.23501 11.6583 8.2542 11.6583C8.26379 11.6631 8.27338 11.6631 8.27818 11.6631C8.76739 11.6631 9.22782 11.8549 9.57314 12.2002C9.64508 12.2722 9.74101 12.3106 9.83213 12.3106C9.92806 12.3106 10.0192 12.2722 10.0911 12.2002C10.235 12.0564 10.235 11.8213 10.0911 11.6775C9.66906 11.2554 9.1223 10.9964 8.53717 10.9388C8.58034 10.0899 9.20384 9.3801 10.048 9.23141C10.2014 9.20743 10.3165 9.08753 10.3453 8.93885C10.5468 7.89808 11.4628 7.14029 12.5228 7.14029C13.7458 7.14029 14.7434 8.13789 14.7434 9.36091C14.7434 9.98441 14.4796 10.5695 14.0288 10.9916C13.271 10.3393 12.3213 9.98441 11.3094 9.98441C11.1031 9.98441 10.94 10.1475 10.94 10.3537C10.94 10.56 11.1031 10.723 11.3094 10.723C12.2302 10.723 13.0983 11.0827 13.7458 11.7398C13.7458 11.7398 13.7458 11.7446 13.7506 11.7446C14.3933 12.3921 14.7434 13.2506 14.7434 14.1571C14.7434 15.03 14.4077 15.8693 13.813 16.5024C13.223 16.1187 12.5468 15.9173 11.8321 15.9173C11.6259 15.9173 11.4628 16.0803 11.4628 16.2866C11.4628 16.4928 11.6259 16.6559 11.8321 16.6559C12.4844 16.6559 13.0983 16.8669 13.6115 17.265C13.6163 17.2698 13.6163 17.2698 13.6211 17.2746C14.3309 17.8309 14.7386 18.6655 14.7386 19.5671C14.7386 20.2194 14.5276 20.8381 14.1247 21.3513C14.0096 21.5 14.024 21.7158 14.1631 21.8453C14.5324 22.1954 14.7386 22.6703 14.7386 23.1787C14.7386 24.1859 13.9185 25.0108 12.9065 25.0108C12.2926 25.0108 11.7266 24.7038 11.3861 24.1954C11.1847 23.8933 11.0791 23.5432 11.0791 23.1835C11.0791 22.9772 10.9161 22.8141 10.7098 22.8141C10.5036 22.8141 10.3405 22.9772 10.3405 23.1835C10.3405 23.4808 10.3933 23.7734 10.4892 24.0468C9.59233 23.9317 8.89209 23.1643 8.89209 22.2338C8.89209 21.9892 8.94005 21.7494 9.03597 21.524C9.32374 20.8429 9.98561 20.4065 10.7242 20.4065C11.2134 20.4065 11.6739 20.5983 12.0192 20.9436C12.1631 21.0875 12.3981 21.0875 12.542 20.9436C12.6859 20.7998 12.6859 20.5647 12.542 20.4209C12.0576 19.9365 11.4101 19.6679 10.7242 19.6679C9.80815 19.6679 8.97362 20.1523 8.51319 20.9245C7.7554 20.6127 7.1271 20.0324 6.76259 19.2842C6.67146 19.1019 6.45084 19.0252 6.26858 19.1115C6.08633 19.2026 6.00959 19.4233 6.09592 19.6055C6.53717 20.512 7.29976 21.2266 8.22542 21.6055C8.17266 21.8118 8.14868 22.018 8.14868 22.2338C8.14868 23.6487 9.29976 24.8046 10.7194 24.8046C10.7818 24.8046 10.8441 24.8046 10.9065 24.7998C11.3909 25.4041 12.1247 25.759 12.9065 25.759C13.5827 25.759 14.1966 25.4952 14.6523 25.0683C14.5276 26.2626 14.2542 26.982 13.8034 27.3513C11.5492 26.6751 9.52518 25.4856 7.95204 23.8933C5.88969 21.759 4.73861 19.0635 4.73861 16.277ZM15.9952 27.8118C15.5348 27.7446 15.0839 27.6583 14.6379 27.5528C15.2422 26.7758 15.4964 25.4233 15.4964 23.1691C15.4964 22.5743 15.2854 21.994 14.9113 21.5384C15.295 20.9484 15.4964 20.2674 15.4964 19.5576C15.4964 18.5695 15.1031 17.6391 14.4077 16.958C15.1031 16.1954 15.4964 15.1882 15.4964 14.1475C15.4964 13.1787 15.1655 12.2578 14.5612 11.5144C15.1511 10.958 15.4964 10.1763 15.4964 9.35611C15.4964 8.42566 15.3141 7.5048 14.9736 6.68465C14.7194 6.08034 14.3933 5.56715 14.0096 5.16906C14.6571 4.98201 15.3237 4.84293 16 4.74221C16.6811 4.84293 17.3429 4.98201 17.9904 5.16906C17.6067 5.56715 17.2758 6.08513 17.0264 6.68465C16.6859 7.5048 16.5036 8.42566 16.5036 9.35611C16.5036 10.1763 16.8489 10.958 17.4388 11.5144C16.8345 12.2578 16.5036 13.1787 16.5036 14.1475C16.5036 15.1882 16.8969 16.1954 17.5923 16.958C16.8969 17.6391 16.5036 18.5695 16.5036 19.5576C16.5036 20.2722 16.705 20.9484 17.0887 21.5384C16.7146 21.994 16.5036 22.5743 16.5036 23.1691C16.5036 25.4185 16.7578 26.771 17.3621 27.5528C16.9065 27.6583 16.4556 27.7446 15.9952 27.8118Z"/>
  </symbol>
  <symbol id="almond" viewBox="0 0 32 32">
    <path d="M15.268 23.194C15.0196 23.119 14.7571 23.2597 14.6868 23.5081C14.0634 25.5986 12.0995 27.061 9.91524 27.061C7.16855 27.0563 4.93744 24.8252 4.93744 22.0832C4.93744 18.4037 6.23111 14.818 8.58408 11.9869L9.37621 11.0354C9.50746 10.8761 9.70432 10.7823 9.91056 10.7823C10.1168 10.7823 10.3137 10.8761 10.4449 11.0354L11.237 11.9869C13.0322 14.1477 14.2228 16.7538 14.6774 19.524C14.7196 19.7771 14.9587 19.9505 15.2165 19.9083C15.4696 19.8661 15.643 19.6271 15.6008 19.3693C15.118 16.4351 13.8572 13.6743 11.9589 11.387L11.1714 10.4308C10.8621 10.0558 10.4027 9.84021 9.91524 9.84021C9.42777 9.84021 8.96843 10.0558 8.65907 10.4308L7.86694 11.3823C5.37335 14.3821 4 18.1834 4 22.0832C4 25.3455 6.65295 27.9984 9.91524 27.9984C11.2136 27.9984 12.4463 27.5859 13.4822 26.8032C14.4806 26.0485 15.2305 24.9705 15.5868 23.7799C15.6571 23.5268 15.5164 23.2643 15.268 23.194Z"/>
    <path d="M9.69025 15.8539C9.46058 15.9758 9.37621 16.2617 9.49808 16.4867C10.2715 17.9257 10.7449 19.5474 10.8714 21.1739C10.8902 21.4176 11.0964 21.6051 11.3401 21.6051C11.3542 21.6051 11.3636 21.6051 11.3776 21.6051C11.6354 21.5864 11.8276 21.3614 11.8089 21.1036C11.6729 19.3224 11.1714 17.621 10.3277 16.0461C10.2058 15.8164 9.91992 15.732 9.69025 15.8539Z"/>
    <path d="M9.91524 24.0144C10.173 24.0144 10.384 23.8035 10.384 23.5457C10.384 23.2879 10.173 23.077 9.91524 23.077C9.36684 23.077 8.91687 22.6317 8.91687 22.0786C8.91687 21.4927 8.95906 20.9021 9.04811 20.3256C9.08561 20.0678 8.91218 19.8287 8.65439 19.7912C8.39659 19.7537 8.15754 19.9272 8.12005 20.1849C8.0263 20.8083 7.97943 21.4458 7.97943 22.0786C7.97943 23.1473 8.84656 24.0144 9.91524 24.0144Z"/>
    <path d="M9.91525 26.0064C12.0807 26.0064 13.8384 24.244 13.8384 22.0832C13.8384 21.8254 13.6275 21.6145 13.3697 21.6145C13.1119 21.6145 12.901 21.8254 12.901 22.0832C12.901 23.7284 11.5605 25.069 9.91525 25.069C9.65746 25.069 9.44653 25.2799 9.44653 25.5377C9.44653 25.7955 9.65746 26.0064 9.91525 26.0064Z"/>
    <path d="M12.9713 19.2053C13.0088 19.2053 13.0463 19.2006 13.0838 19.1912C13.3369 19.1303 13.4916 18.8772 13.4306 18.6241C13.1072 17.2835 12.5963 15.9946 11.9167 14.7946C11.7901 14.5697 11.5042 14.49 11.2792 14.6165C11.0542 14.7431 10.9745 15.029 11.1011 15.254C11.7385 16.3789 12.2166 17.5835 12.5213 18.8397C12.5682 19.06 12.7604 19.2053 12.9713 19.2053Z"/>
    <path d="M8.11068 15.4039C7.87632 15.2914 7.59977 15.3851 7.48259 15.6195C6.50766 17.6256 5.99207 19.8567 5.99207 22.0785C5.99207 22.3363 6.20299 22.5472 6.46079 22.5472C6.71858 22.5472 6.9295 22.3363 6.9295 22.0785C6.9295 19.9973 7.41229 17.9069 8.32629 16.032C8.43878 15.7976 8.34035 15.5211 8.11068 15.4039Z"/>
    <path d="M27.9938 17.2601L27.8813 16.0273C27.525 12.1463 25.8095 8.49033 23.0534 5.72958C20.7473 3.42347 16.9976 3.42347 14.6915 5.72958C12.3854 8.03568 12.3854 11.7854 14.6915 14.0915C17.4476 16.8476 21.1036 18.5631 24.9893 18.924L26.222 19.0365C26.2736 19.0412 26.3251 19.0412 26.372 19.0412C26.8032 19.0412 27.2157 18.8725 27.525 18.5631C27.8625 18.221 28.0359 17.7429 27.9938 17.2601ZM26.8548 17.9022C26.7095 18.0475 26.5032 18.1225 26.297 18.1038L25.0643 17.9913C21.3989 17.6538 17.9491 16.032 15.3477 13.4306C13.4072 11.4901 13.4072 8.33097 15.3477 6.39047C16.2898 5.44834 17.5366 4.93275 18.8678 4.93275C20.1989 4.93275 21.4457 5.44834 22.3879 6.39047C24.9893 8.99186 26.611 12.4463 26.9485 16.107L27.061 17.3398C27.0751 17.5507 27.0048 17.7569 26.8548 17.9022Z"/>
    <path d="M18.8631 8.91686C19.1303 8.91686 19.3787 9.01998 19.5662 9.20746C19.9787 9.61994 20.3677 10.0699 20.7146 10.5386C20.8083 10.6652 20.9489 10.7308 21.0942 10.7308C21.1927 10.7308 21.2864 10.7027 21.3708 10.6371C21.577 10.4824 21.6239 10.1918 21.4692 9.98085C21.0942 9.46995 20.6771 8.98717 20.2318 8.54188C19.8662 8.17628 19.3834 7.97473 18.8631 7.97473C18.3475 7.97473 17.8601 8.17628 17.4945 8.54188C17.3117 8.72468 17.3117 9.01998 17.4945 9.20278C17.6773 9.38558 17.9726 9.38558 18.1554 9.20278C18.3475 9.01998 18.6006 8.91686 18.8631 8.91686Z"/>
    <path d="M23.1144 13.576C21.5489 13.1026 20.0677 12.2917 18.8256 11.2324C18.6287 11.0637 18.3334 11.0871 18.1647 11.2839C17.996 11.4808 18.0194 11.7761 18.2163 11.9448C19.5709 13.1073 21.127 13.9557 22.8425 14.4759C22.8894 14.49 22.9316 14.4947 22.9785 14.4947C23.18 14.4947 23.3675 14.3634 23.4284 14.1619C23.4987 13.9088 23.3581 13.651 23.1144 13.576Z"/>
    <path d="M21.6379 7.13576C21.4551 6.95296 21.1598 6.95296 20.977 7.13576C20.7942 7.31856 20.7942 7.61385 20.977 7.79665C22.4488 9.26843 23.5831 11.0871 24.2674 13.0604C24.333 13.2525 24.5158 13.3744 24.7127 13.3744C24.7643 13.3744 24.8158 13.365 24.8674 13.3463C25.1111 13.2619 25.2424 12.9948 25.158 12.751C24.4268 10.6512 23.2128 8.70597 21.6379 7.13576Z"/>
    <path d="M22.8566 15.5726C21.6098 15.2305 20.4193 14.7149 19.3178 14.0399C19.0975 13.904 18.8069 13.9743 18.6756 14.1946C18.5397 14.4149 18.61 14.7055 18.8303 14.8368C20.0068 15.5586 21.2817 16.107 22.6082 16.4726C22.6504 16.482 22.6925 16.4913 22.7347 16.4913C22.941 16.4913 23.1285 16.3554 23.1847 16.1492C23.2503 15.8961 23.105 15.6383 22.8566 15.5726Z"/>
    <path d="M16.7539 7.13576C16.5711 6.95296 16.2758 6.95296 16.093 7.13576C14.565 8.66378 14.565 11.1574 16.093 12.6854C16.1867 12.7791 16.3039 12.8213 16.4258 12.8213C16.5476 12.8213 16.6648 12.7745 16.7586 12.6854C16.9414 12.5026 16.9414 12.2073 16.7586 12.0245C15.5961 10.8621 15.5961 8.96376 16.7586 7.80134C16.9367 7.61854 16.9367 7.31856 16.7539 7.13576Z"/>
    <path d="M15.3524 21.0754C15.2305 21.0754 15.1087 21.127 15.0196 21.2114C14.9305 21.3004 14.8837 21.4176 14.8837 21.5442C14.8837 21.666 14.9352 21.7879 15.0196 21.877C15.1087 21.966 15.2258 22.0129 15.3524 22.0129C15.4789 22.0129 15.5961 21.9613 15.6852 21.877C15.7742 21.7879 15.8211 21.6707 15.8211 21.5442C15.8211 21.4176 15.7695 21.3004 15.6852 21.2114C15.5961 21.1223 15.4743 21.0754 15.3524 21.0754Z"/>
  </symbol>
  <symbol id="milk" viewBox="0 0 32 32">
    <path d="M8.48126 11.45C8.74015 11.45 8.95001 11.2401 8.95001 10.9812C8.95001 10.7223 8.74015 10.5125 8.48126 10.5125C8.22238 10.5125 8.01251 10.7223 8.01251 10.9812C8.01251 11.2401 8.22238 11.45 8.48126 11.45Z"/>
    <path d="M11.4875 11.45C11.7464 11.45 11.9562 11.2401 11.9562 10.9812C11.9562 10.7223 11.7464 10.5125 11.4875 10.5125C11.2286 10.5125 11.0187 10.7223 11.0187 10.9812C11.0187 11.2401 11.2286 11.45 11.4875 11.45Z"/>
    <path d="M9.98126 13.4187C10.2401 13.4187 10.45 13.2088 10.45 12.95C10.45 12.6911 10.2401 12.4812 9.98126 12.4812C9.72238 12.4812 9.51251 12.6911 9.51251 12.95C9.51251 13.2088 9.72238 13.4187 9.98126 13.4187Z"/>
    <path d="M12.9875 13.4187C13.2464 13.4187 13.4562 13.2088 13.4562 12.95C13.4562 12.6911 13.2464 12.4812 12.9875 12.4812C12.7286 12.4812 12.5187 12.6911 12.5187 12.95C12.5187 13.2088 12.7286 13.4187 12.9875 13.4187Z"/>
    <path d="M3.9375 13.4187C4.19638 13.4187 4.40625 13.2088 4.40625 12.95C4.40625 12.6911 4.19638 12.4812 3.9375 12.4812C3.67862 12.4812 3.46875 12.6911 3.46875 12.95C3.46875 13.2088 3.67862 13.4187 3.9375 13.4187Z"/>
    <path d="M6.97498 13.4187C7.23386 13.4187 7.44373 13.2088 7.44373 12.95C7.44373 12.6911 7.23386 12.4812 6.97498 12.4812C6.71609 12.4812 6.50623 12.6911 6.50623 12.95C6.50623 13.2088 6.71609 13.4187 6.97498 13.4187Z"/>
    <path d="M9.98126 9.47498C10.2401 9.47498 10.45 9.26511 10.45 9.00623C10.45 8.74734 10.2401 8.53748 9.98126 8.53748C9.72238 8.53748 9.51251 8.74734 9.51251 9.00623C9.51251 9.26511 9.72238 9.47498 9.98126 9.47498Z"/>
    <path d="M6.97498 9.47498C7.23386 9.47498 7.44373 9.26511 7.44373 9.00623C7.44373 8.74734 7.23386 8.53748 6.97498 8.53748C6.71609 8.53748 6.50623 8.74734 6.50623 9.00623C6.50623 9.26511 6.71609 9.47498 6.97498 9.47498Z"/>
    <path d="M5.50623 11.45C5.76511 11.45 5.97497 11.2401 5.97497 10.9812C5.97497 10.7223 5.76511 10.5125 5.50623 10.5125C5.24734 10.5125 5.03748 10.7223 5.03748 10.9812C5.03748 11.2401 5.24734 11.45 5.50623 11.45Z"/>
    <path d="M30.525 14.0188H26.0563C25.7938 14.0188 25.5875 14.2312 25.5875 14.4875C25.5875 14.75 25.8 14.9563 26.0563 14.9563H30.525C30.8188 14.9563 31.0563 15.1938 31.0563 15.4875V15.6438C31.0563 15.9062 30.8688 16.125 30.6125 16.1687L16.4188 18.5312C16.1938 18.5688 16.025 18.7625 16.025 18.9937V21.5C16.025 23.45 14.4375 25.0375 12.4875 25.0375H4.46875C2.51875 25.0375 0.93125 23.45 0.93125 21.5V14.9563H23.7438C24.0063 14.9563 24.2125 14.7438 24.2125 14.4875C24.2125 14.225 24 14.0188 23.7438 14.0188H16.8063C16.5375 13.375 15.8375 11.8063 14.7438 10.2125C12.8563 7.45625 10.6875 6 8.48125 6C6.275 6 4.1 7.45625 2.20625 10.2125C0.8125 12.2375 0.05625 14.2375 0.025 14.3188V14.325C0.01875 14.3375 0.01875 14.35 0.0125 14.3625C0.0125 14.3688 0.0125 14.3687 0.00625 14.375C0 14.3875 0 14.4 0 14.4187C0 14.425 0 14.425 0 14.4312C0 14.45 0 14.4688 0 14.4812V21.5C0 23.9688 2.00625 25.975 4.475 25.975H12.4938C14.9625 25.975 16.9688 23.9688 16.9688 21.5V19.3938L30.7688 17.0938C31.4813 16.975 32 16.3625 32 15.6438V15.4875C31.9938 14.675 31.3313 14.0188 30.525 14.0188ZM8.48125 6.9375C12.3125 6.9375 14.9688 12.1687 15.7938 14.0125H1.16875C1.9875 12.1687 4.64375 6.9375 8.48125 6.9375Z"/>
  </symbol>
  <symbol id="sugar" viewBox="0 0 32 32">
    <path d="M4.18761 25.5505C7.66777 27.7268 7.43795 27.6142 7.60211 27.6142C7.76627 27.6142 7.5599 27.708 10.8056 25.6865C14.0559 27.7174 13.8495 27.6142 14.009 27.6142C14.1685 27.6142 14.009 27.6846 16.6261 26.0477C16.8138 25.9304 16.87 25.6818 16.7528 25.4942C16.6355 25.3066 16.3869 25.2503 16.1993 25.3676L14.0043 26.7418L11.2042 24.9924V22.2345L12.6676 21.3199C12.8552 21.2027 12.9115 20.9541 12.7942 20.7665C12.677 20.5789 12.4284 20.5226 12.2408 20.6398L10.8056 21.5404L8.00547 19.7909V17.033L10.8056 15.2836C12.3674 16.2591 12.2642 16.2122 12.3768 16.231C12.5644 16.2638 12.752 16.1653 12.8224 15.9871C12.8927 15.8089 12.827 15.6072 12.6676 15.504L11.2042 14.5894V11.8315L14.0043 10.0821L16.8044 11.8315V12.4084C16.8044 12.6289 16.9826 12.8071 17.203 12.8071C17.4235 12.8071 17.6017 12.6289 17.6017 12.4084V11.8315L20.4018 10.0821L23.2019 11.8315V14.8098C23.2019 15.0303 23.3801 15.2085 23.6005 15.2085C23.821 15.2085 23.9992 15.0303 23.9992 14.8098V11.6064C23.9992 11.4704 23.9289 11.3391 23.8116 11.2687L20.7958 9.38323V6.40023C20.7958 6.26422 20.7254 6.13289 20.6082 6.06254L17.4188 4.0598C17.2875 3.98007 17.1233 3.98007 16.9967 4.0598L14.009 5.92652L11.0166 4.0598C10.8853 3.98007 10.7211 3.98007 10.5945 4.0598L7.39105 6.06254C7.27379 6.13758 7.20344 6.26422 7.20344 6.40023V9.37854L4.18761 11.264C4.07035 11.3391 4 11.4657 4 11.6017V14.8052C4 14.9412 4.07035 15.0725 4.18761 15.1429L7.20344 17.0283V19.7862L4.18761 21.6717C4.07035 21.7467 4 21.8734 4 22.0094V25.2128C4 25.3488 4.07035 25.4755 4.18761 25.5505ZM17.2077 4.87121L20.0078 6.62068V9.37854L17.2077 11.128L14.4077 9.37854V6.62068L17.2077 4.87121ZM10.8056 4.87121L13.6056 6.62068V9.37854L10.8056 11.128L8.00547 9.37854V6.62068L10.8056 4.87121ZM4.80203 11.8269L7.60211 10.0774L10.4022 11.8269V14.5847L7.60211 16.3342L4.80203 14.5847V11.8269ZM4.80203 22.2298L7.60211 20.4804L10.4022 22.2298V24.9877L7.60211 26.7372L4.80203 24.9877V22.2298Z"/>
    <path d="M22.4092 16.0105V15.6072C22.4092 14.9083 22.0997 14.2423 21.5697 13.7827L21.9684 12.9806C22.0668 12.7836 21.9824 12.5444 21.7854 12.4459C21.5884 12.3474 21.3492 12.4272 21.2507 12.6242L20.8802 13.3699C20.3221 13.1495 19.6983 13.1495 19.1354 13.3699L18.7649 12.6242C18.7039 12.4928 18.5726 12.4084 18.4319 12.399C18.2865 12.3896 18.1505 12.46 18.0708 12.5773C17.991 12.6992 17.9816 12.8493 18.0473 12.9806L18.446 13.7827C17.9113 14.2376 17.6017 14.9036 17.6017 15.6072V16.0105C17.2359 16.0058 16.8419 16.0058 16.401 16.0058C14.2763 16.0058 11.9969 16.972 11.9969 18.4072C11.9969 20.1332 15.2472 21.0385 16.8654 20.7664C16.8278 21.0854 16.7997 21.5216 16.7997 21.8124C16.7997 24.6124 18.0004 26.8497 19.5998 27.1733V27.6189C19.5998 27.8393 19.778 28.0176 19.9985 28.0176C20.2189 28.0176 20.3971 27.8393 20.3971 27.6189V27.1686C21.9965 26.845 23.1972 24.6077 23.1972 21.8077C23.1972 21.5216 23.1691 21.0807 23.1315 20.7664C24.7684 21.0385 28 20.1239 28 18.4072C28 16.972 25.7252 16.0058 23.5959 16.0058C23.1925 16.0058 22.7845 16.0058 22.4092 16.0105ZM18.4085 15.6072C18.4085 14.7207 19.1261 14.0078 20.0078 14.0078C20.8943 14.0078 21.6072 14.7254 21.6072 15.6072V16.0293C21.0678 16.0199 20.5238 16.0996 20.0078 16.2591C19.4919 16.0903 18.9478 16.0152 18.4038 16.0293V15.6072H18.4085ZM20.0125 18.1587C20.2001 18.5339 20.43 18.8856 20.702 19.2046H19.3184C19.5857 18.8856 19.8202 18.5339 20.0125 18.1587ZM12.8036 18.4072C12.8036 17.6849 14.464 16.8079 16.4057 16.8079C17.2078 16.8079 19.0979 16.7938 19.5951 16.9533C19.4591 17.9148 18.0614 20.0113 16.4057 20.0113C14.4686 20.0066 12.8036 19.1295 12.8036 18.4072ZM18.4929 20.0066H21.5181C21.762 20.1989 22.0246 20.3631 22.3014 20.4991C22.3154 20.6023 22.3295 20.7055 22.3436 20.8086H19.6092C19.3887 20.8086 19.2105 20.9869 19.2105 21.2073C19.2105 21.4278 19.3887 21.606 19.6092 21.606H22.3999C22.4186 21.8733 22.4139 22.1407 22.3858 22.408H17.6299C17.6017 22.1407 17.597 21.8733 17.6158 21.606H18.0051C18.2255 21.606 18.4038 21.4278 18.4038 21.2073C18.4038 20.9869 18.2255 20.8086 18.0051 20.8086H17.6721C17.6862 20.7008 17.7002 20.5976 17.7143 20.4897C17.9957 20.3584 18.2537 20.1989 18.4929 20.0066ZM18.2068 24.8094H20.0078C20.2283 24.8094 20.4065 24.6312 20.4065 24.4108C20.4065 24.1903 20.2283 24.0121 20.0078 24.0121H17.9113C17.8362 23.7494 17.7753 23.4821 17.7284 23.21H22.292C22.2451 23.4821 22.1841 23.7494 22.1091 24.0121H21.6119C21.3915 24.0121 21.2132 24.1903 21.2132 24.4108C21.2132 24.6312 21.3915 24.8094 21.6119 24.8094H21.8136C20.838 26.9435 19.1823 26.9435 18.2068 24.8094ZM27.2121 18.4072C27.2121 19.4016 24.2384 20.4053 22.8126 19.8518C21.6213 19.289 20.7442 18.229 20.4206 16.9533C20.9975 16.7797 22.7282 16.8079 23.6099 16.8032C25.5517 16.8079 27.2121 17.6849 27.2121 18.4072Z"/>
  </symbol>
  <symbol id="beans" viewBox="0 0 32 32">
    <path d="M15.3672 10.0563C15.2031 9.85 14.9031 9.81719 14.6969 9.98125C14.4484 10.1781 14.1531 10.2859 13.8344 10.2859C13.5156 10.2859 13.2203 10.1828 12.9719 9.98125C12.7656 9.81719 12.4656 9.85 12.3016 10.0563C12.1375 10.2625 12.1703 10.5625 12.3766 10.7266C12.7891 11.0594 13.3094 11.2375 13.8391 11.2375C14.3688 11.2375 14.8891 11.0547 15.3016 10.7266C15.4984 10.5625 15.5313 10.2625 15.3672 10.0563Z"/>
    <path d="M27.6531 16.8016C27.2687 15.7469 26.6031 14.8422 25.7265 14.1859C25.1031 13.7219 24.3953 13.4031 23.6312 13.2391C23.7953 11.7344 23.3265 10.1734 22.3468 8.9875C21.2875 7.70781 19.764 7 18.0578 7H17.7812C16.5859 7 15.4281 7.42188 14.4297 8.22344C14.2562 8.35938 14.05 8.43438 13.8297 8.43438C13.6094 8.43438 13.4031 8.35938 13.2297 8.22344C12.2359 7.42188 11.0781 7 9.88279 7H9.60623C8.37342 7 7.22029 7.375 6.27342 8.07813C5.39217 8.73438 4.72654 9.63438 4.34686 10.6938C3.96717 11.7438 3.89686 12.8594 4.15467 13.9188C4.42654 15.0625 5.06873 16.0797 6.01092 16.8672C6.7281 17.4672 7.5156 17.9828 8.34998 18.4C8.31717 18.9484 8.36404 19.4922 8.4906 20.0266C8.76248 21.1703 9.40467 22.1875 10.3469 22.975C12.5359 24.8031 15.3156 25.8063 18.1703 25.8063C21.025 25.8063 23.8047 24.7984 25.9937 22.975C26.9359 22.1875 27.5781 21.1703 27.85 20.0266C28.1031 18.9672 28.0375 17.8516 27.6531 16.8016ZM8.49998 17.4016C7.83435 17.0453 7.20623 16.6188 6.62029 16.1313C4.79217 14.6078 4.71248 12.4891 5.24217 11.0172C5.77654 9.53594 7.20623 7.95625 9.60154 7.95625H9.8781C10.8531 7.95625 11.8047 8.30781 12.6297 8.96875C12.9672 9.24063 13.3937 9.39063 13.825 9.39063C14.2562 9.39063 14.6828 9.24063 15.0203 8.96875C15.8453 8.30313 16.7968 7.95625 17.7718 7.95625H18.0484C19.464 7.95625 20.725 8.5375 21.6015 9.59688C22.4172 10.5813 22.8015 11.8703 22.675 13.1125C22.5812 13.1078 22.4828 13.1031 22.3843 13.1031H22.1078C20.9125 13.1031 19.7547 13.525 18.7562 14.3266C18.5828 14.4625 18.3765 14.5375 18.1562 14.5375C17.9359 14.5375 17.7297 14.4625 17.5562 14.3266C16.5578 13.525 15.4 13.1031 14.2047 13.1031H13.9281C12.6953 13.1031 11.5469 13.4781 10.5953 14.1813C9.71404 14.8375 9.04842 15.7375 8.66873 16.7969C8.60779 16.9984 8.54685 17.2 8.49998 17.4016ZM25.3797 22.2391C23.364 23.9219 20.8 24.85 18.1703 24.85C15.5406 24.85 12.9719 23.9219 10.9562 22.2391C9.1281 20.7156 9.04842 18.5969 9.5781 17.125C10.1125 15.6438 11.5422 14.0641 13.9375 14.0641H14.214C15.189 14.0641 16.1406 14.4156 16.9656 15.0766C17.3031 15.3484 17.7297 15.4984 18.1609 15.4984C18.5922 15.4984 19.0187 15.3484 19.3562 15.0766C20.1812 14.4109 21.1328 14.0641 22.1078 14.0641H22.3843C24.7797 14.0641 26.2093 15.6484 26.7437 17.125C27.2875 18.5969 27.2078 20.7156 25.3797 22.2391Z"/>
    <path d="M19.6234 16.0985C19.4593 15.8922 19.1593 15.8594 18.9531 16.0235C18.7047 16.2204 18.4093 16.3282 18.0906 16.3282C17.7718 16.3282 17.4765 16.2251 17.2281 16.0235C17.0219 15.8594 16.7219 15.8922 16.5578 16.0985C16.3937 16.3047 16.4265 16.6047 16.6328 16.7688C17.0453 17.1016 17.5656 17.2797 18.0953 17.2797C18.625 17.2797 19.1453 17.0969 19.5578 16.7688C19.7593 16.6047 19.7922 16.3047 19.6234 16.0985Z"/>
    <path d="M23.3171 22.4453C23.1953 22.2109 22.9093 22.1172 22.6749 22.239C21.2734 22.9562 19.7593 23.3219 18.1703 23.3219C17.9078 23.3219 17.6921 23.5375 17.6921 23.8C17.6921 24.0625 17.9078 24.2781 18.1703 24.2781C19.9093 24.2781 21.5734 23.8797 23.1109 23.0875C23.3453 22.9703 23.4343 22.6797 23.3171 22.4453Z"/>
    <path d="M25.1688 21.0953C25 20.8937 24.7 20.8656 24.4938 21.0344C24.3813 21.1281 24.2688 21.2172 24.1563 21.3062C23.9453 21.4656 23.9078 21.7656 24.0672 21.9765C24.1609 22.0984 24.3016 22.164 24.4469 22.164C24.55 22.164 24.6484 22.1312 24.7375 22.0656C24.8641 21.9719 24.9859 21.8687 25.1078 21.7703C25.3094 21.5969 25.3375 21.2969 25.1688 21.0953Z"/>
  </symbol>

<!-- form

  <symbol id="check" viewBox="0 0 31 24">
    <path d="M28.4138 1.65506C26.4828 -0.551832 23.1724 -0.551832 21.2414 1.3792L11.0345 11.5861L8.82758 9.3792C6.89655 7.44817 3.5862 7.44817 1.65517 9.3792H1.37931C-0.551726 11.3102 -0.551726 14.6206 1.37931 16.5516L7.44827 22.6206C8.55172 23.724 9.93103 23.9999 11.0345 23.9999C12.4138 23.9999 13.5172 23.4482 14.6207 22.6206L28.4138 8.82748C30.3448 6.89644 30.3448 3.5861 28.4138 1.65506Z"/>
  </symbol>

  -->

<!-- socials -->

  <symbol id="vk" viewBox="0 0 24 24">
    <path d="M23.8692 17.5259C23.8692 17.4605 23.8038 17.3951 23.8038 17.3951C23.4114 16.6757 22.5613 15.6948 21.3842 14.6485C20.861 14.1253 20.5341 13.7984 20.4033 13.6022C20.1417 13.2752 20.0763 12.9482 20.2071 12.6212C20.3379 12.3597 20.6649 11.8365 21.3188 10.9864C21.6458 10.5286 21.9074 10.2016 22.1035 9.94004C23.5422 8.04358 24.1962 6.80108 24 6.27792L23.9346 6.14712C23.8692 5.95094 23.7384 5.88554 23.5422 5.82015C23.3461 5.75475 23.0845 5.75475 22.7575 5.82015H19.1608C19.0954 5.82015 19.03 5.82015 18.8992 5.82015C18.7684 5.82015 18.7684 5.88554 18.7684 5.88554H18.703L18.6376 5.95094C18.5722 5.95094 18.5722 6.01633 18.5068 6.08173C18.4414 6.14713 18.4414 6.21252 18.376 6.27792C17.9837 7.25884 17.5259 8.23977 17.0681 9.0899C16.7411 9.61306 16.4796 10.0708 16.218 10.4632C15.9564 10.8556 15.7602 11.1172 15.564 11.3133C15.3678 11.5095 15.2371 11.6403 15.1063 11.7711C14.9755 11.9019 14.8447 11.9019 14.7793 11.9019C14.7139 11.9019 14.6485 11.8365 14.5831 11.8365C14.4523 11.7711 14.3869 11.6403 14.3215 11.5095C14.2561 11.3787 14.1907 11.2479 14.1907 11.0518C14.1907 10.8556 14.1253 10.6594 14.1253 10.5286C14.1253 10.3978 14.1253 10.2016 14.1253 9.94004C14.1253 9.67846 14.1253 9.48227 14.1253 9.41688C14.1253 9.0899 14.1253 8.76293 14.1253 8.37056C14.1253 7.97819 14.1253 7.71661 14.1253 7.52042C14.1253 7.32424 14.1253 7.06266 14.1253 6.80108C14.1253 6.5395 14.1253 6.34331 14.0599 6.21252C14.0599 6.08173 13.9946 5.95094 13.9292 5.82015C13.8638 5.68936 13.7984 5.55857 13.6676 5.49317C13.5368 5.42778 13.406 5.36238 13.2752 5.29699C12.8174 5.1662 12.2943 5.1662 11.5749 5.1662C10.0055 5.1662 9.02452 5.23159 8.56676 5.49317C8.37057 5.55857 8.23978 5.68936 8.10899 5.88554C7.9782 6.08173 7.91281 6.14712 8.0436 6.21252C8.56676 6.27792 8.89373 6.4741 9.08992 6.73568L9.15531 6.86647C9.22071 6.99726 9.2861 7.19345 9.3515 7.45503C9.41689 7.71661 9.41689 8.04358 9.48229 8.37056C9.54768 8.95911 9.54768 9.48227 9.48229 9.94004C9.41689 10.3978 9.41689 10.7248 9.3515 10.921C9.2861 11.1825 9.2861 11.3787 9.15531 11.5095C9.08992 11.6403 9.02452 11.7711 9.02452 11.7711C9.02452 11.8365 8.95913 11.8365 8.95913 11.8365C8.82834 11.9019 8.76294 11.9019 8.63215 11.9019C8.50136 11.9019 8.37057 11.8365 8.23978 11.7057C8.0436 11.5749 7.91281 11.4441 7.71662 11.2479C7.52044 11.0518 7.32425 10.7902 7.12807 10.3978C6.93188 10.0054 6.6703 9.61306 6.40872 9.0899L6.21253 8.69753C6.08174 8.43595 5.88556 8.10898 5.68937 7.65121C5.49319 7.19345 5.297 6.80108 5.10082 6.34331C5.03542 6.21252 4.90463 6.08173 4.77384 5.95094H4.70845C4.64305 5.88554 4.57766 5.88554 4.51226 5.82015C4.44687 5.82015 4.31608 5.75475 4.25068 5.75475H0.850136C0.457766 5.75475 0.196185 5.88554 0.0653951 6.01633V6.08173C0 6.14713 0 6.21252 0 6.27792C0 6.34331 0 6.4741 0.0653951 6.60489C0.588556 7.782 1.11172 8.89372 1.70027 10.0054C2.28883 11.1172 2.81199 11.9673 3.20436 12.6212C3.66213 13.2752 4.0545 13.9291 4.51226 14.5177C4.97003 15.1063 5.23161 15.4986 5.42779 15.6294C5.55858 15.8256 5.68937 15.891 5.75477 16.0218L6.08174 16.3488C6.27793 16.5449 6.60491 16.8065 6.93188 17.0681C7.32425 17.3297 7.71662 17.5913 8.23978 17.9182C8.69755 18.1798 9.2861 18.4414 9.87466 18.5722C10.5286 18.7684 11.1172 18.8338 11.7057 18.7684H13.1444C13.406 18.7684 13.6676 18.6376 13.7984 18.5068L13.8638 18.4414C13.9292 18.376 13.9292 18.3106 13.9292 18.1798C13.9292 18.049 13.9946 17.9836 13.9946 17.8528C13.9946 17.5259 13.9946 17.1989 14.0599 16.8719C14.1253 16.6103 14.1907 16.3488 14.2561 16.218C14.3215 16.0872 14.4523 15.9564 14.5177 15.8256C14.6485 15.6948 14.7139 15.6948 14.7139 15.6294C14.7793 15.6294 14.7793 15.564 14.8447 15.564C15.0409 15.4986 15.3025 15.564 15.564 15.7602C15.8256 15.9564 16.0872 16.218 16.3488 16.4795C16.6104 16.7411 16.8719 17.0681 17.1989 17.4605C17.5259 17.7875 17.8529 18.1144 18.049 18.2452L18.3106 18.376C18.5068 18.5068 18.703 18.5722 18.9646 18.6376C19.2262 18.703 19.4877 18.7684 19.6839 18.703L22.8883 18.6376C23.2153 18.6376 23.4768 18.5722 23.6076 18.5068C23.8038 18.376 23.8692 18.3106 23.9346 18.1798C24 18.049 24 17.9182 23.9346 17.7221C23.9346 17.7221 23.9346 17.5913 23.8692 17.5259Z"/>
  </symbol>

  <symbol id="fb" viewBox="0 0 24 24">
    <path d="M24 22.6921C24 23.4114 23.4114 24 22.6921 24H16.545V14.7139H19.6839L20.1417 11.1172H16.545V8.82834C16.545 7.78202 16.8065 7.06267 18.3106 7.06267H20.2071V3.79292C19.8801 3.72752 18.7684 3.66213 17.3951 3.66213C14.6485 3.66213 12.752 5.3624 12.752 8.43597V11.1172H9.61308V14.7139H12.752V24H1.3079C0.588556 24 0 23.4114 0 22.6921V1.3079C0 0.588556 0.588556 0 1.3079 0H22.6921C23.4114 0 24 0.588556 24 1.3079V22.6921Z"/>
  </symbol>

  <symbol id="in" viewBox="0 0 24 24">
    <path d="M21.1226 0H2.87738C1.3079 0 0 1.24251 0 2.81199V21.188C0 22.7575 1.3079 24 2.87738 24H21.1226C22.6921 24 24 22.7575 24 21.188V2.81199C24 1.24251 22.6921 0 21.1226 0ZM17.2643 3.72752C17.2643 3.33515 17.5913 3.00817 17.9837 3.00817H20.2725C20.6649 3.00817 20.9918 3.33515 20.9918 3.72752V5.95095C20.9918 6.34332 20.6649 6.6703 20.2725 6.6703H18.049C17.6567 6.6703 17.3297 6.34332 17.3297 5.95095L17.2643 3.72752ZM12.0327 7.38965C14.5831 7.38965 16.6757 9.41689 16.6757 11.9673C16.6757 14.5177 14.5831 16.545 12.0327 16.545C9.48229 16.545 7.38965 14.5177 7.38965 11.9673C7.38965 9.48229 9.48229 7.38965 12.0327 7.38965ZM21.7112 20.9918C21.7112 21.3842 21.3842 21.7112 20.9918 21.7112H3.00817C2.6158 21.7112 2.28883 21.3842 2.28883 20.9918V9.74387H5.23161C4.83924 10.3324 4.70845 11.3787 4.70845 12.0327C4.70845 16.0218 7.9782 19.2916 12.0327 19.2916C16.0872 19.2916 19.3569 16.0218 19.3569 12.0327C19.3569 11.3787 19.2916 10.3324 18.7684 9.74387H21.7766L21.7112 20.9918Z"/>
  </symbol>

  <symbol id="tw" viewBox="0 0 24 24">
    <path d="M23.346 2.41963C22.3651 3.00818 21.3188 3.40055 20.2071 3.66213C19.2916 2.68121 18.049 2.09265 16.6104 2.09265C13.8638 2.09265 11.7057 4.38148 11.7057 7.12807C11.7057 7.52044 11.7711 7.91281 11.8365 8.30519C7.71662 8.0436 4.11989 6.01636 1.70027 2.94279C1.3079 3.66213 1.04632 4.57766 1.04632 5.4932C1.04632 7.25886 1.89646 8.76295 3.26975 9.67848C2.48501 9.67848 1.70027 9.4169 1.04632 9.02453V9.15532C1.04632 11.5749 2.74659 13.6676 4.97003 14.1253C4.57766 14.2561 4.11989 14.3215 3.66213 14.3215C3.33515 14.3215 3.00817 14.3215 2.74659 14.2561C3.40054 16.2834 5.16621 17.7221 7.32425 17.7875C5.62398 19.1608 3.53133 19.9455 1.17711 19.9455C0.784741 19.9455 0.392371 19.9455 0 19.8801C2.15804 21.3188 4.77384 22.1689 7.52044 22.1689C16.6104 22.1689 21.515 14.4523 21.515 7.78202C21.515 7.58584 21.515 7.32426 21.515 7.12807C22.4959 6.40873 23.346 5.55859 24 4.51227C23.1499 4.90464 22.1689 5.16622 21.188 5.29701C22.1689 4.57767 22.9537 3.59674 23.346 2.41963Z"/>
  </symbol>




   <symbol id="" viewBox=""></symbol>
  <symbol id="" viewBox=""></symbol>
  <symbol id="" viewBox=""></symbol>


  <!-- screen__menu -->
  <symbol id="close" viewBox="0 0 24 24">
    <path d="M16.2667 12L23.2 5.06667C24.2667 4 24.2667 2.4 23.2 1.46667L22.6667 0.933333C21.6 -0.133333 20 -0.133333 19.0667 0.933333L12 7.73333L5.06667 0.8C4 -0.266667 2.4 -0.266667 1.33333 0.8L0.8 1.33333C-0.266667 2.4 -0.266667 4 0.8 4.93333L7.73333 12L0.8 18.9333C-0.266667 20 -0.266667 21.6 0.8 22.5333L1.33333 23.2C2.4 24.2667 4 24.2667 4.93333 23.2L12 16.2667L18.9333 23.2C20 24.2667 21.6 24.2667 22.5333 23.2L23.0667 22.6667C24.1333 21.6 24.1333 20 23.0667 19.0667L16.2667 12Z"/>
  </symbol>

</svg>